<svg xmlns="http://www.w3.org/2000/svg" viewBox="0 0 309.92 195.3"><defs><style>.cls-1{fill:#e2e2e2;}.cls-2{fill:#4bbd4e;}.cls-3,.cls-6{fill:#fff;}.cls-4{fill:#c2c2c2;}.cls-5{fill:#3fa042;}.cls-6{fill-opacity:0.34;}.cls-7{fill:#3d3e40;}.cls-8{fill:#f2829a;}.cls-9{fill:#ffa1a2;}</style></defs><title>Fichier 3</title><g id="Calque_2" data-name="Calque 2"><g id="Calque_1-2" data-name="Calque 1"><path class="cls-1" d="M167.23,4.55a52.88,52.88,0,0,0-15.48,2.6h0q-18,.25-35.46,12.68a71.23,71.23,0,0,0-8.66,8.46Q92.91,47.9,91.44,48.17q-3,3.28-21.46,16.17a96.2,96.2,0,0,0-9.75,9A94.19,94.19,0,0,0,43.45,96.48Q25.68,129.6,31.8,150.57q2.08,10.06,12.51,21,5,5.68,17.11,9.4,15,4.24,24.23,4.54l56.5,2.36,3.21,0h0l-1.58,2.58,0,.07A177.1,177.1,0,0,0,174,192.91c3.52,0,7.14-.08,10.84-.25q17-1,51.42-8.88,34.07-9.51,47.27-30.73,5.91-9.2,7.16-22.73,2.1-21.21-2.29-29.28a43.92,43.92,0,0,0-7.67-11.71q-.42-1.12-10.82-9.27a28.61,28.61,0,0,1-3.25-3.36q-.83-.42-7.58-12.52l-2.15-2.67h0q-3.81-11.85-10-17a40.67,40.67,0,0,0-7.49-5.11q-1-.7-19.85-9.6-3.92-2-7.69-4.23-4.8-2.79-15.77-12.78a24.83,24.83,0,0,0-4-2.67A47.63,47.63,0,0,0,170,4.64h-.25Q168.51,4.55,167.23,4.55Z"/><path class="cls-2" d="M301,76.76q-9.07,2.37-17,10.41l8.18,12c.3-.53.61-1.15.94-1.86l4.22-9.45q.55-1.26,2.33-4.75c.26-.53.49-1.07.71-1.62q1.2-3.15.59-4.71"/><path class="cls-2" d="M305.12,43.66l-3.73,3.84L283.72,65,270.78,78.73l14.4,9.13q4.95-5.19,4.9-5.64,1.21-2,6.85-13.43c2.57-4.64,3.88-7.09,3.91-7.36a50.91,50.91,0,0,0,4.31-17.73"/><path class="cls-2" d="M287.18,41.26q-3.44.12-8.81,5.48a69.44,69.44,0,0,0-8.93,12.8,47.88,47.88,0,0,0-4.25,13.63,22.54,22.54,0,0,0-.25,4.24c.08.52.71,1.2,1.88,2a15.91,15.91,0,0,0,9.24,2.44l11.13-17a24.49,24.49,0,0,1-.92-7.34c0-1.27,0-2.94.15-5q0-.66.59-6.69c.12-2.53.2-4,.24-4.42a.11.11,0,0,0,0-.12"/><path class="cls-2" d="M13.39,115.89q-.27.23.12,1.53a20.92,20.92,0,0,0,1.16,3.08q.09.45,4.72,8.84l2.6,5.45q.47,1,.72,1.41a21.33,21.33,0,0,0,2.58,3.68,50.19,50.19,0,0,0,4.19,4l2.34-19.8A97.14,97.14,0,0,0,23,119.27a71.77,71.77,0,0,0-9.58-3.39"/><path class="cls-2" d="M5.85,82.46q-.36,2,1.45,7,.47,1.74,7.21,14.12,8.05,14.53,15.42,22.49l7.76-19.23A148,148,0,0,1,20.85,95.28q-2.69-2.07-6.48-5.21-6.18-5.88-8.5-7.62"/><path class="cls-2" d="M24.75,76.74a31.63,31.63,0,0,1,1.71,4.05,39.71,39.71,0,0,1,1,4.14c.18,1,.37,2.18.57,3.66q.18,1.23,1,9.19.46,3.82.87,6.18L38,108.9a76.2,76.2,0,0,0,5-10.09c.81-2.11,1-3.76.67-5a13,13,0,0,0-2-2.56l-3.26-3.18q-4.9-5.2-6.89-7a21.38,21.38,0,0,0-6.71-4.38"/><path class="cls-3" d="M193.29,24.19q-3.1-3.68-10.91-6.88-9.4-3.6-16.3-3.63-5.29.11-7.33,3.21a7,7,0,0,0,.35,7.93,9.63,9.63,0,0,0,4.62,2.85,21.85,21.85,0,0,0,2.83.58q1.35.2,4.95.48l.6.14c1.24.29,3.41.9,6.5,1.85.7.2,2.34.85,4.92,2,.46.18.86.32,1.21.42a11.79,11.79,0,0,0,3.36.45q5-.26,6.48-3.1c.88-1.91.46-4-1.28-6.26"/><path class="cls-3" d="M213.68,40.36a7.48,7.48,0,0,0-3.36-4.7,18.08,18.08,0,0,0-8-2.14,5.15,5.15,0,0,0-4.1,1.8A6.52,6.52,0,0,0,197,37.8a4.14,4.14,0,0,0-.19,2.12,11.87,11.87,0,0,0,1.52,3.26,14.16,14.16,0,0,0,2.44,3A10.19,10.19,0,0,0,206.24,48q4,.14,5.57-1.6a7.58,7.58,0,0,0,1.68-3,6,6,0,0,0,.19-3"/><path class="cls-3" d="M169.49,0l-2.31.65c-2,.58-1.28.38,2.2-.62M166.11,1,126.63,12.24l-1.87,1.26a82.73,82.73,0,0,0-10.93,10Q98.55,39.55,87.26,53.09l-3.67,3.36a242.32,242.32,0,0,0-19,15.44,120.19,120.19,0,0,0-13,13.69q-14.76,17-20.2,40.68-2.5,12.33,8.79,31.52-3.86-7.12,2.83-30.21,3.26-10.35,21.26-36.06A120.29,120.29,0,0,1,75,79.48q16.32-14.9,26.27-22.9l4.81-4.7a37.41,37.41,0,0,0,3.84-5q8.33-14.26,9.81-15.82a64.28,64.28,0,0,1,9-10A93.65,93.65,0,0,1,165.9,1M40.2,157.88a28.29,28.29,0,0,0,1.57,3.42q6.34,10.71-1.54-3.37"/><path class="cls-4" d="M258.49,74.58l2.56,2c-1-.77-1.82-1.43-2.56-2"/><path class="cls-4" d="M262.22,80.82q18.19,11.88,18.17,30.25.23,23-17,40.09-15.8,16.08-47.46,27.66-7,2.87-25.64,6.22-22.68,4.05-37.45,4.29,6.67,1,47.4-1.16a205.79,205.79,0,0,0,30.4-4.46,180.24,180.24,0,0,0,28.75-9.5,57.54,57.54,0,0,0,15.86-11.06q20.06-20.16,14.38-54.92a50,50,0,0,0-5.57-17L262.35,80.88"/><path class="cls-5" d="M300.19,77.48q-1,1.62-4.93,8.67l-1,1.91-2,4-1.67,3.14a4.31,4.31,0,0,0,.08,2.52,16.64,16.64,0,0,0,.62,2.18c0,.08.14.06.31,0a16.66,16.66,0,0,0,3.88-5.46c.45-1,.92-2.1,1.4-3.41l1.86-5.35.55-1.47a26,26,0,0,1,1.64-3.31l-.71-3.41"/><path class="cls-5" d="M305.22,43.55q-1.1,1.74-5.48,10.11l-3.95,7.9c-.35.68-1.7,3-4.06,6.92q-7.78,12.18-12,17A3.94,3.94,0,0,0,279.9,88a6.78,6.78,0,0,0,3.47-1,17.48,17.48,0,0,0,3.9-2.89,32.64,32.64,0,0,0,5.18-5.68l12.77-34.92"/><path class="cls-5" d="M285.53,41c-.76,2.64-1.36,4.82-1.82,6.56q-2.16,8.76-2.11,8.41c-.69,2.5-1.38,4.7-2.05,6.58a55.24,55.24,0,0,1-3,7.06,70.38,70.38,0,0,1-3.66,6.17c0,.15.09.13.42-.08.55-.35,1.23-.82,2-1.41a25.76,25.76,0,0,0,2.61-2.36,70.94,70.94,0,0,0,7.33-8.81l.28-22.1"/><path class="cls-5" d="M29.23,135.73a53.08,53.08,0,0,1-3.57-4.54l-7-10.37-1.39-2c-1.55-2.11-2.31-3-2.27-2.74q-.24.62.42,4.41a23.45,23.45,0,0,0,1.49,4.59,94.6,94.6,0,0,0,8,13.84l1.29,1.6,2.94-4.78"/><path class="cls-5" d="M31.11,120.18a49.64,49.64,0,0,1-5.89-7.52q-3.82-6.57-10.29-16.79L8.38,84.8,7.22,82.93c-.08-.13-.17-.19-.25-.18a7.25,7.25,0,0,0-.38,3.87A17,17,0,0,0,8.07,92c.49,1,.91,1.83,1.27,2.42l6.17,9.65,8.15,13.81a7.17,7.17,0,0,0,3.27,2.84l4.16-.58"/><path class="cls-5" d="M36.77,106.32Q35,102.65,33.64,99c-.32-.86-.64-1.77-1-2.72q-4.56-13.56-4.6-13.49-1-3-2.13-5.51a6.61,6.61,0,0,0-.47,2.85,19.52,19.52,0,0,0,.29,4.19q0,.8,2.35,10,1.29,5.16,2,7l6.66,5"/><path class="cls-6" d="M42.05,94.84q.68-2.94-4.73-8.69a67.38,67.38,0,0,0-6.8-6.43,15.28,15.28,0,0,0-4.91-2.36l-.05,2.85a96.75,96.75,0,0,1,9.8,8.33,45.07,45.07,0,0,1,3.32,3.67,23.27,23.27,0,0,1,2.16,3.4c.06.11.33,0,.8-.31a1,1,0,0,0,.41-.45"/><path class="cls-6" d="M35.08,111l-1.39-5.49L14.26,91,5.88,84.47q-.91-.69-.6-.3,2.31,2.74,4.94,5.54,5.24,5.52,9.45,9.37a150,150,0,0,0,15.38,11.86"/><path class="cls-6" d="M29.26,125.94l-.06-2.41-3.43-1.46-1.84-.74c-1.34-.52-2.62-1-3.82-1.33a20.25,20.25,0,0,0-4.05-.9s0,0,0,.05l.62.51q.7.56,1.32,1A51.91,51.91,0,0,0,23,123.34a63.63,63.63,0,0,0,6.21,2.6"/><path class="cls-6" d="M286.19,40.67,281.31,44a34.53,34.53,0,0,0-3.79,3.84A86,86,0,0,0,268.12,62a18.87,18.87,0,0,0-2.43,8.47,8,8,0,0,0,.72,3.27c.74,1.38,1.35,2.11,1.85,2.2a26.83,26.83,0,0,1,.87-3.67l3.34-9.61a55.26,55.26,0,0,1,3-7,44.74,44.74,0,0,1,3.6-5.86l7.11-9.06"/><path class="cls-6" d="M306,45.21l-8.68,8.12L283.36,64.87q-3.24,2.82-4.86,4.53A21.58,21.58,0,0,0,274.07,76a5.12,5.12,0,0,0-.19,2.59q.47,2.3,1,2.28l21.66-25.42Q304,47,306,45.21"/><path class="cls-6" d="M301.84,77.49l-7.67,3.15a23,23,0,0,0-2.55,1,22.23,22.23,0,0,0-3.93,2.54,9.15,9.15,0,0,0-1.75,2.14,5.43,5.43,0,0,0-.65,2,.68.68,0,0,0,.1.49c.13.23.4.64.8,1.2s.6.66.74.55a.52.52,0,0,0,.18-.15c1.69-2.1,3-3.69,4-4.75a47.56,47.56,0,0,1,3.58-3.5,26.66,26.66,0,0,1,7.1-4.64"/><path class="cls-7" d="M165.82,7.84a74.09,74.09,0,0,1,21.67,3.22l.45.18a46.34,46.34,0,0,1,9.53,5.34Q216.63,32.92,220,34.2q-1.51.21,19.84,8.27A30.68,30.68,0,0,1,247,47a28.78,28.78,0,0,1,6,8.46q6.71,22,9.79,25.24a11.27,11.27,0,0,0,3.21,3,69.17,69.17,0,0,1,12,6.67,17.71,17.71,0,0,1,5.05,5.31q5.46,7.77,5,31.51Q286.47,147,278,156.72q-9.35,11.79-35.54,20.71a263.08,263.08,0,0,1-49.32,8.78c-1.94.23-5.54.43-10.78.59h-.11l-2.68.25c-1.31.1-2.35.17-3.1.21-1.25,0-2.54.07-3.88.13l-1.2.07-1.39.1-1.48.07h0a13.4,13.4,0,0,1-3.11.27c-.57,0-1.19,0-1.88,0h-1.6q-12.61,0-28.8-1.08l-52.5-5.33q-16.14-2.35-24.91-5.83-6.06-2.3-9-5.27-1.3-.94-7.16-11.33a46.8,46.8,0,0,1-5.33-24.58q-.11-9.75,10-30.69,3-7.2,16.1-24.78a76.28,76.28,0,0,1,10.09-10.1L99.15,46q1,0,12.92-16.51a51.11,51.11,0,0,1,5.11-5.41,65.67,65.67,0,0,1,12.18-8.24Q148.27,7.84,165.82,7.84Zm-.08,180.22.88,0h-.88ZM165.23.47q-19,0-38.69,8.51A73.35,73.35,0,0,0,112.1,18.7q-2.41,1.14-18,21.93L65,63.73A78.65,78.65,0,0,0,53.85,75.18Q40.4,93.24,37,101.68q-10.37,21.13-10.24,33.8a53.84,53.84,0,0,0,6.65,27.8q6.69,15.16,18.82,18.95,9,3.78,26.27,6.41,0,.53,54.1,5.54,13.44,1.13,27.18,1.12a353.72,353.72,0,0,0,36.51-1.92q42.54-5.41,50.59-9.66,26.5-9.1,37.46-23.07,9.27-11,11.18-32.95.68-25.5-5.88-35.62-3.52-7.32-20.72-15.65-2.06-1.43-9.36-24.54A35.8,35.8,0,0,0,252,41.46a37.5,37.5,0,0,0-8.72-5.56l-19.42-8q-2.51-.74-22.47-17.62A54.72,54.72,0,0,0,191,4.47l-.25-.1A86,86,0,0,0,165.23.47Z"/><path class="cls-7" d="M10.78,113.07a1,1,0,0,0-.4.07h0a2.25,2.25,0,0,0-.89,2.78l6.43,11.81q5.23,9.29,11.2,19.1a2.53,2.53,0,0,0,.59.55h0a1.77,1.77,0,0,0,1,.29,2.37,2.37,0,0,0,.83-.17,1.9,1.9,0,0,0,.92-2.55l-3.63-6.09h0L24.6,135.2l-5.07-8.8-4.46-8.14h0q2.17.64,11.94,4.93c.38.17.84.39,1.37.66h0c1.56.79,3.75,2,6.57,3.64l.14,0h0c.26-1.15.58-2.37,1-3.65h0a49.72,49.72,0,0,0-6.62-3.71c-.79-.39-1.64-.79-2.54-1.21l-.35-.15h0q-3.63-1.55-6.45-2.69h0Q12.53,113.08,10.78,113.07Z"/><path class="cls-7" d="M2,76.9a1.51,1.51,0,0,0-.68.16l-.08,0a1.82,1.82,0,0,0-1.13,2.2,81.33,81.33,0,0,0,3.57,7.6,265,265,0,0,0,16.45,29.22h0c1.34,2,2.65,3.85,3.92,5.53a1.86,1.86,0,0,0,1.18.44,2.27,2.27,0,0,0,1.16-.36,1.91,1.91,0,0,0,.63-2.3l-.44-.62h0A239.08,239.08,0,0,1,7.33,85.72h0l11.58,9.6L31.6,106.17l2.4,2h0l6,4.9c.5-1.18,1-2.39,1.58-3.64h0l-6-4.85-1.26-1L31,100.61l-4.67-4L21.25,92.3,3.38,77.48A2.34,2.34,0,0,0,2,76.9Z"/><path class="cls-7" d="M23.19,73.58a.88.88,0,0,0-.35.06h0c-1.24.33-1.77,1-1.59,2.12.93,2.8,1.74,5.7,2.44,8.72l1.42,6.14,1.21,6,1,4.83a2,2,0,0,0,.33.73,1.9,1.9,0,0,0,1.5.77,2.38,2.38,0,0,0,.68-.1A1.91,1.91,0,0,0,31.05,101l-.07-.37L28.72,89.3Q26.62,80.21,26.2,79h.05a37.24,37.24,0,0,1,7,4.87,52.53,52.53,0,0,1,7.18,7.76l1.06,1.52h0a57.49,57.49,0,0,1,4.29,7.4q.94-1.78,2.28-3.93h0a57.35,57.35,0,0,0-4.36-7h0a54.36,54.36,0,0,0-9.83-10.23A48,48,0,0,0,27.1,75.1,10.81,10.81,0,0,0,23.19,73.58Z"/><path class="cls-7" d="M208.94,86.55a3.16,3.16,0,0,0-1.43.33L201.94,90q-6.52,3.66-15,9.18a6.37,6.37,0,0,0-1.76,1.34l.61-.58-.35.25a4.47,4.47,0,0,0-.74.7,2.59,2.59,0,0,0-.61,1.85,4.12,4.12,0,0,0,2.78,3.41q2.85,1.26,13,4.45l10.52,3a3.13,3.13,0,0,0,.86.12,3.24,3.24,0,0,0,1-6.34q-11.28-3-17.67-5.31,7.58-4.82,16.1-9.48a3.21,3.21,0,0,0,.68-.54A3.25,3.25,0,0,0,209,86.55"/><path class="cls-7" d="M124.82,85.1q-6,.21-10.13,5.54a20.32,20.32,0,0,0-3.83,12.94,20.7,20.7,0,0,0,4.75,12.74q4.53,5.13,10.51,5.05t10.12-5.56a20.29,20.29,0,0,0,3.82-12.87,20.76,20.76,0,0,0-4.73-12.76q-4.53-5.13-10.5-5.08"/><path class="cls-3" d="M130.38,91.77a3.38,3.38,0,0,0-2.79,1.94,8.1,8.1,0,0,0-.87,4.54,8.82,8.82,0,0,0,1.55,4.52,3.83,3.83,0,0,0,3.06,1.8,3.37,3.37,0,0,0,2.8-1.93A8.17,8.17,0,0,0,135,98.1a8.82,8.82,0,0,0-1.55-4.52,3.84,3.84,0,0,0-3.06-1.81"/><path class="cls-7" d="M152.64,123.85l-2.17.2a6.85,6.85,0,0,0-1,.17,3.37,3.37,0,0,0-1.79,1.15,5.86,5.86,0,0,0-1.26,3.24,11.8,11.8,0,0,0,0,1.77h0a17.16,17.16,0,0,0,33.54.14h0l.09-1.07a8.86,8.86,0,0,0,0-1.21,5,5,0,0,0-.7-2.42,3.44,3.44,0,0,0-1.61-1.38,5.27,5.27,0,0,0-1.28-.39h-7.31Z"/><path class="cls-8" d="M163.35,132.22a9.29,9.29,0,0,0-5,1.24,4.28,4.28,0,0,0-2.27,3.21,3.83,3.83,0,0,0,1.81,3.32,8.75,8.75,0,0,0,4.84,1.48,9.37,9.37,0,0,0,5-1.23A4.28,4.28,0,0,0,170,137a3.83,3.83,0,0,0-1.81-3.33,8.81,8.81,0,0,0-4.84-1.48"/><path class="cls-9" d="M109,122.12a16.15,16.15,0,0,0-9.5,3,10.22,10.22,0,0,0-4.39,7.27,8.56,8.56,0,0,0,3.27,7.25,14,14,0,0,0,9,3,16.12,16.12,0,0,0,9.46-3,10.22,10.22,0,0,0,4.41-7.27,8.52,8.52,0,0,0-3.24-7.26,14.05,14.05,0,0,0-9-3"/><path class="cls-9" d="M215.35,117.69a16.57,16.57,0,0,1,10.19.64,10.47,10.47,0,0,1,6.18,6.13,8.77,8.77,0,0,1-1.44,8,14.47,14.47,0,0,1-8.23,5.23,16.42,16.42,0,0,1-10.13-.63,10.45,10.45,0,0,1-6.2-6.11,8.7,8.7,0,0,1,1.41-8,14.39,14.39,0,0,1,8.2-5.25"/><path class="cls-7" d="M304.21,72.68q-1.33-.51-14.89,7.45-6.93,4.32-9,6.67a1.79,1.79,0,0,0,.4,2,1.83,1.83,0,0,0,2,.37c3.3-2.52,5.62-4.18,7-5q8.68-5.2,10.67-6.07l-3.24,8.21-3.73,8.91-4.32,9.89a1.81,1.81,0,0,0,3.34,1.38q4.46-10,8.29-19.34l4.66-11.9a2.15,2.15,0,0,0-1.17-2.52"/><path class="cls-7" d="M308.5,37.56a1.89,1.89,0,0,0-1.94.65L291.47,54.32l-11,12.14-7.12,7.46c-1.19,1.21-2.53,2.44-4,3.7-.81,1.32-.54,2.31.81,2.95a1.81,1.81,0,0,0,1.56-.24,60.29,60.29,0,0,0,4.43-4.1l7.24-7.6L294,56.88l9.78-10.42A226.18,226.18,0,0,1,289.3,80.57a1.81,1.81,0,0,0,3.06,1.75q7.15-12.43,15.08-35.2a73.35,73.35,0,0,0,2.46-7.59,1.71,1.71,0,0,0-1.33-1.94"/><path class="cls-7" d="M287.75,36.91c-.55-.16-1.83.46-3.84,1.88A45.91,45.91,0,0,0,278,43.63,51.9,51.9,0,0,0,270,54.47a58.28,58.28,0,0,0-6.09,17c-.23,1.09-.41,2.3-.56,3.65a11.5,11.5,0,0,0,.15,2.11,1.81,1.81,0,0,0,3.5.31q-.44-2.82,1.77-10.67a53.66,53.66,0,0,1,4.55-10.88,49.16,49.16,0,0,1,5.85-8.17,35.24,35.24,0,0,1,6-5.43l0,0q-.24,1.24-1.14,10l-.81,11.3a1.82,1.82,0,0,0,1.42,1.62,1.8,1.8,0,0,0,2-.89,1.85,1.85,0,0,0,.23-.72l.76-10.48.61-6c.3-2.93.72-5.76,1.26-8.51,0-1-.54-1.65-1.75-1.81"/></g></g></svg>