<svg xmlns="http://www.w3.org/2000/svg" viewBox="0 0 434.69 273.93"><defs><style>.cls-1{fill:#e2e2e2;}.cls-2{fill:#4bbd4e;}.cls-3,.cls-6{fill:#fff;}.cls-4{fill:#c2c2c2;}.cls-5{fill:#3fa042;}.cls-6{fill-opacity:0.34;}.cls-7{fill:#3d3e40;}.cls-8{fill:#f2829a;}.cls-9{fill:#ffa1a2;}</style></defs><title>logo</title><g id="Calque_2" data-name="Calque 2"><g id="Calque_1-2" data-name="Calque 1"><path class="cls-1" d="M234.56,6.39A74.16,74.16,0,0,0,212.84,10h0q-25.29.35-49.75,17.78a101.2,101.2,0,0,0-12.15,11.88Q130.3,67.17,128.25,67.56q-4.22,4.6-30.1,22.68a135.43,135.43,0,0,0-13.67,12.57A131.91,131.91,0,0,0,61,135.33Q36,181.77,44.6,211.19q2.94,14.12,17.54,29.48,7.08,8,24,13.18,21.07,6,34,6.38l79.25,3.31,4.5,0h0l-2.21,3.62-.06.11A249.86,249.86,0,0,0,244,270.58q7.43,0,15.2-.35,23.82-1.49,72.13-12.46,47.78-13.33,66.29-43.11,8.31-12.89,10.06-31.87,2.93-29.76-3.22-41.07a61.62,61.62,0,0,0-10.76-16.42q-.6-1.58-15.18-13a40.34,40.34,0,0,1-4.55-4.7Q372.8,107,363.31,90l-3-3.74h0q-5.34-16.64-14-23.87a58,58,0,0,0-10.51-7.17q-1.44-1-27.84-13.46-5.47-2.73-10.78-5.93-6.74-3.91-22.12-17.92a34.25,34.25,0,0,0-5.65-3.75,66.84,66.84,0,0,0-31-7.67h-.35C236.91,6.43,235.74,6.39,234.56,6.39Z"/><path class="cls-2" d="M422.22,107.66Q409.5,111,398.43,122.27l11.49,16.81c.41-.74.85-1.61,1.3-2.61l5.92-13.25q.78-1.77,3.28-6.66.54-1.12,1-2.28,1.68-4.43.83-6.6"/><path class="cls-2" d="M428,61.24l-5.24,5.38L397.94,91.16l-18.15,19.26L400,123.24q6.94-7.29,6.88-7.91,1.71-2.83,9.6-18.84,5.41-9.76,5.48-10.33,5.73-13.77,6.05-24.87"/><path class="cls-2" d="M402.8,57.86q-4.83.2-12.36,7.7a96.87,96.87,0,0,0-12.52,18,66.92,66.92,0,0,0-6,19.12,31.24,31.24,0,0,0-.36,6q.18,1.1,2.64,2.85a22.21,22.21,0,0,0,13,3.43L402.81,91a34.52,34.52,0,0,1-1.29-10.3q0-2.67.22-7c0-.61.27-3.74.82-9.38q.26-5.32.34-6.2a.18.18,0,0,0-.06-.17"/><path class="cls-2" d="M18.78,162.55c-.25.21-.2.93.17,2.15A31.12,31.12,0,0,0,20.57,169q.13.63,6.63,12.41l3.64,7.63c.44.91.78,1.57,1,2a30,30,0,0,0,3.63,5.17,70.78,70.78,0,0,0,5.87,5.63l3.29-27.77q-10.19-5.92-12.4-6.77-9.81-4-13.43-4.76"/><path class="cls-2" d="M8.21,115.66q-.53,2.78,2,9.79.66,2.44,10.11,19.81Q31.67,165.63,42,176.79l10.89-27a204.37,204.37,0,0,1-23.62-16.19q-3.77-2.9-9.09-7.29-8.69-8.27-11.93-10.69"/><path class="cls-2" d="M34.71,107.64a41.49,41.49,0,0,1,2.4,5.67,56.34,56.34,0,0,1,1.43,5.82c.26,1.35.53,3.06.8,5.13q.25,1.71,1.35,12.88.64,5.37,1.22,8.67l11.35,6.93a105.18,105.18,0,0,0,7-14.14c1.14-3,1.46-5.28,1-6.95a17.82,17.82,0,0,0-2.86-3.59l-4.57-4.46q-6.89-7.3-9.67-9.83a30.37,30.37,0,0,0-9.41-6.14"/><path class="cls-3" d="M271.1,33.93q-4.35-5.16-15.29-9.65-13.2-5.05-22.87-5.09-7.42.14-10.28,4.5-3.22,5.94.49,11.13a13.46,13.46,0,0,0,6.49,4,29.78,29.78,0,0,0,4,.81c1.26.19,3.58.41,7,.68l.83.2c1.75.39,4.79,1.26,9.12,2.58q1.47.42,6.91,2.77c.63.25,1.2.44,1.69.58a16.49,16.49,0,0,0,4.71.65q7-.37,9.09-4.36,1.86-4-1.79-8.78"/><path class="cls-3" d="M299.71,56.61A10.55,10.55,0,0,0,295,50a25.23,25.23,0,0,0-11.27-3A7.2,7.2,0,0,0,278,49.54,9.06,9.06,0,0,0,276.26,53a5.72,5.72,0,0,0-.27,3,16.36,16.36,0,0,0,2.14,4.57,19.36,19.36,0,0,0,3.42,4.22,14.2,14.2,0,0,0,7.72,2.58c3.71.14,6.31-.6,7.82-2.23a10.84,10.84,0,0,0,2.35-4.26,8.36,8.36,0,0,0,.27-4.25"/><path class="cls-3" d="M237.73,0l-3.24.91q-4.23,1.23,3.09-.86M233,1.35,177.61,17.16,175,18.94a116.87,116.87,0,0,0-15.33,14q-21.42,22.58-37.27,41.56l-5.13,4.71Q98.13,93.66,90.62,100.84A167.21,167.21,0,0,0,72.35,120Q51.65,143.84,44,177.1q-3.51,17.28,12.33,44.21-5.4-10,4-42.39,4.56-14.5,29.82-50.56,9.87-12.21,15-16.89Q128,90.59,142,79.36l6.74-6.59a51.41,51.41,0,0,0,5.39-6.94q11.69-20,13.76-22.2a90.63,90.63,0,0,1,12.63-14,131.48,131.48,0,0,1,52.17-28.2m-176.3,220a38.14,38.14,0,0,0,2.2,4.8q8.89,15-2.16-4.73"/><path class="cls-4" d="M362.55,104.61l3.6,2.78q-2-1.64-3.59-2.78"/><path class="cls-4" d="M367.8,113.36q25.51,16.65,25.47,42.43Q393.6,188,369.37,212q-22.14,22.54-66.56,38.8-9.78,4-36,8.72-31.8,5.68-52.52,6,9.36,1.44,66.48-1.63,17.77-1,42.64-6.26a253.45,253.45,0,0,0,40.33-13.33A80.36,80.36,0,0,0,386,228.83q28.15-28.26,20.18-77-2.34-14.37-7.81-23.87L368,113.45"/><path class="cls-5" d="M421,108.68q-1.46,2.25-6.9,12.15l-1.41,2.69-2.85,5.67-2.35,4.4c-.3.49-.25,1.67.12,3.55a23.3,23.3,0,0,0,.88,3.05c0,.11.18.08.42-.08a22.93,22.93,0,0,0,5.44-7.65c.64-1.35,1.29-3,2-4.78l2.6-7.51.77-2.06a38.62,38.62,0,0,1,2.3-4.65l-1-4.77"/><path class="cls-5" d="M428.1,61.08q-1.53,2.45-7.69,14.18l-5.54,11.08q-.72,1.44-5.69,9.71-10.92,17.08-16.83,23.85a5.44,5.44,0,0,0,.24,3.54,9.72,9.72,0,0,0,4.87-1.34,24.68,24.68,0,0,0,5.46-4,46.92,46.92,0,0,0,7.28-8l17.9-49"/><path class="cls-5" d="M400.48,57.51c-1.06,3.7-1.91,6.76-2.55,9.2q-3,12.27-3,11.79-1.46,5.27-2.88,9.23a75.88,75.88,0,0,1-4.25,9.9,91.41,91.41,0,0,1-5.13,8.66c-.06.21.14.17.59-.12.78-.49,1.73-1.14,2.84-2a36.08,36.08,0,0,0,3.67-3.3,101.68,101.68,0,0,0,10.28-12.36l.39-31"/><path class="cls-5" d="M41,190.38A71.35,71.35,0,0,1,36,184l-9.79-14.55-1.94-2.78c-2.18-3-3.25-4.23-3.19-3.84-.23.57,0,2.64.59,6.19a33.2,33.2,0,0,0,2.09,6.44A131.89,131.89,0,0,0,35,194.88l1.81,2.25L41,190.42"/><path class="cls-5" d="M43.64,168.56A68.71,68.71,0,0,1,35.38,158Q30,148.82,20.94,134.46l-9.18-15.53-1.64-2.61c-.11-.19-.23-.28-.35-.25a10.34,10.34,0,0,0-.53,5.42,24,24,0,0,0,2.08,7.61,37.54,37.54,0,0,0,1.78,3.39L21.75,146l11.44,19.37a10,10,0,0,0,4.58,4l5.84-.81"/><path class="cls-5" d="M51.57,149.13q-2.46-5.16-4.38-10.27c-.45-1.21-.91-2.48-1.36-3.81q-6.42-19-6.46-18.93-1.45-4.2-3-7.73a9.31,9.31,0,0,0-.65,4,27.51,27.51,0,0,0,.39,5.88q0,1.13,3.31,14,1.82,7.25,2.77,9.89l9.35,7"/><path class="cls-6" d="M59,133q.95-4.12-6.64-12.2a92.65,92.65,0,0,0-9.54-9,21.1,21.1,0,0,0-6.88-3.31l-.07,4A136.07,136.07,0,0,1,49.6,124.18a65.75,65.75,0,0,1,4.65,5.16,33.54,33.54,0,0,1,3,4.76c.08.15.45,0,1.12-.43A1.25,1.25,0,0,0,59,133"/><path class="cls-6" d="M49.21,155.63l-2-7.7L20,127.65,8.25,118.48c-.86-.65-1.14-.79-.85-.43q3.26,3.87,6.93,7.77,7.35,7.76,13.26,13.15,7.23,6.67,21.57,16.63"/><path class="cls-6" d="M41,176.65,41,173.26l-4.82-2c-1-.4-1.82-.75-2.58-1-1.88-.73-3.67-1.36-5.36-1.87A30,30,0,0,0,22.53,167c-.06,0-.06,0,0,.08l.88.72a21.35,21.35,0,0,0,1.85,1.33A68.36,68.36,0,0,0,32.32,173a84.5,84.5,0,0,0,8.7,3.65"/><path class="cls-6" d="M401.41,57l-6.85,4.65a48.55,48.55,0,0,0-5.31,5.39A120.48,120.48,0,0,0,376.07,87q-3.45,6.71-3.41,11.88a11.13,11.13,0,0,0,1,4.59c1,1.93,1.89,2.95,2.59,3.08a37.76,37.76,0,0,1,1.22-5.15l4.68-13.47A76.89,76.89,0,0,1,386.35,78a62.56,62.56,0,0,1,5-8.22l10-12.71"/><path class="cls-6" d="M429.15,63.4,417,74.8,397.44,91q-4.54,4-6.82,6.36a30.43,30.43,0,0,0-6.21,9.28,7.15,7.15,0,0,0-.26,3.64c.43,2.14.91,3.2,1.43,3.2L416,77.8Q426.36,66,429.14,63.41"/><path class="cls-6" d="M423.37,108.68l-10.76,4.43a28.71,28.71,0,0,0-3.58,1.4,30.85,30.85,0,0,0-5.52,3.56,13,13,0,0,0-2.45,3,7.65,7.65,0,0,0-.91,2.76.94.94,0,0,0,.14.69c.18.33.56.89,1.13,1.69s.83.93,1,.76a.6.6,0,0,0,.25-.2q3.56-4.42,5.66-6.67a64,64,0,0,1,5-4.9,37.33,37.33,0,0,1,10-6.51"/><path class="cls-7" d="M232.58,11A103.73,103.73,0,0,1,263,15.52l.63.25A65.6,65.6,0,0,1,277,23.25Q303.83,46.17,308.52,48q-2.11.32,27.83,11.6a43.2,43.2,0,0,1,10.11,6.31q4.49,4,8.42,11.86,9.42,30.94,13.74,35.4a15.89,15.89,0,0,0,4.49,4.17A97.67,97.67,0,0,1,390,126.66a24.81,24.81,0,0,1,7.08,7.45q7.65,10.88,7,44.19-2.31,27.85-14.21,41.51Q376.79,236.36,340,248.86q-36.93,10-69.17,12.32-4.08.48-15.12.83h-.16l-3.75.35c-1.84.14-3.29.24-4.36.3-1.75,0-3.56.1-5.43.17l-1.69.1-2,.15-2.07.09h0a18.9,18.9,0,0,1-4.36.38c-.8,0-1.68,0-2.64-.07h-2.25q-17.7,0-40.39-1.53l-73.63-7.47q-22.65-3.3-34.95-8.17-8.5-3.24-12.6-7.39-1.84-1.35-10-15.9A65.52,65.52,0,0,1,48,188.56q-.15-13.67,14-43,4.17-10.11,22.58-34.76A107.92,107.92,0,0,1,98.76,96.6l40.31-32q1.38,0,18.12-23.16a70.68,70.68,0,0,1,7.17-7.59,92.61,92.61,0,0,1,17.09-11.56Q208,11,232.58,11Zm-.12,252.77,1.24,0H233l-.5,0ZM231.75.66Q205,.66,177.48,12.6a102,102,0,0,0-20.25,13.64Q153.85,27.82,132,57L91.17,89.39q-10.4,9.06-15.65,16.06Q56.65,130.77,51.9,142.61,37.37,172.27,37.53,190q-.41,21.57,9.33,39,9.39,21.28,26.4,26.58,12.57,5.31,36.84,9,0,.72,75.89,7.77,18.84,1.58,38.11,1.57a495.26,495.26,0,0,0,51.22-2.7q59.67-7.58,71-13.55,37.17-12.77,52.54-32.36,13-15.44,15.67-46.21,1-35.76-8.24-50-5-10.29-29.07-22-2.87-2-13.12-34.42-4.79-9.36-10.61-14.63a52.47,52.47,0,0,0-12.23-7.8L314,39.09q-3.51-1-31.52-24.71a75.71,75.71,0,0,0-14.58-8.11l-.35-.14A120.46,120.46,0,0,0,231.75.66Z"/><path class="cls-7" d="M15.12,158.6a1.24,1.24,0,0,0-.57.1h0a3.19,3.19,0,0,0-1.25,3.91l9,16.56q7.32,13,15.7,26.78a3.54,3.54,0,0,0,.83.78h0a2.46,2.46,0,0,0,1.35.41,3.13,3.13,0,0,0,1.16-.24,2.68,2.68,0,0,0,1.3-3.58l-5.09-8.54h0l-3.07-5.14-7.11-12.35-6.26-11.42h0q3.06.9,16.75,6.91.81.36,1.92.93h0q3.29,1.66,9.22,5.11l.2,0h0q.56-2.42,1.35-5.12h0a70.89,70.89,0,0,0-9.29-5.21c-1.12-.54-2.3-1.1-3.56-1.68l-.49-.21h0q-5.1-2.19-9-3.78h0Q17.58,158.6,15.12,158.6Z"/><path class="cls-7" d="M2.75,107.86a2.17,2.17,0,0,0-1,.22l-.1,0A2.55,2.55,0,0,0,.1,111.22a109.22,109.22,0,0,0,5,10.65q12.48,25.17,23.07,41h0q2.82,4.21,5.5,7.76a2.66,2.66,0,0,0,1.65.61,3.13,3.13,0,0,0,1.63-.51,2.66,2.66,0,0,0,.88-3.22l-.61-.86h0q-13.48-18.94-26.95-46.4h0l16.24,13.46,17.8,15.22,3.37,2.75h0l8.43,6.87q1.05-2.47,2.22-5.1h0L50,146.63l-1.77-1.44-4.76-4.07-6.55-5.59-7.09-6.06L4.74,108.67A3.31,3.31,0,0,0,2.75,107.86Z"/><path class="cls-7" d="M32.53,103.2a1.16,1.16,0,0,0-.49.09h0c-1.73.46-2.48,1.45-2.23,3q2,5.88,3.42,12.23l2,8.62,1.69,8.42,1.36,6.78a2.81,2.81,0,0,0,.46,1,2.65,2.65,0,0,0,2.11,1.08,3.64,3.64,0,0,0,1-.14,2.69,2.69,0,0,0,1.77-2.64l-.1-.51-3.17-15.87q-2.94-12.73-3.53-14.51h0l.06,0a51.35,51.35,0,0,1,9.83,6.83A73,73,0,0,1,56.7,128.47c.51.72,1,1.43,1.49,2.13h0a79,79,0,0,1,6,10.37c.89-1.66,2-3.49,3.19-5.51h0a79.65,79.65,0,0,0-6.11-9.76l0,0a76.34,76.34,0,0,0-13.79-14.35,66,66,0,0,0-9.49-6Q34,103.2,32.53,103.2Z"/><path class="cls-7" d="M293.06,121.39a4.66,4.66,0,0,0-2,.46l-7.82,4.37q-9.15,5.15-21.06,12.88a9.08,9.08,0,0,0-2.47,1.88l.87-.82-.49.35a5.75,5.75,0,0,0-1,1,3.6,3.6,0,0,0-.86,2.59,5.79,5.79,0,0,0,3.9,4.79q4,1.76,18.22,6.23l14.76,4.19a4.82,4.82,0,0,0,1.2.16,4.55,4.55,0,0,0,2.56-8.31,4.39,4.39,0,0,0-1.21-.59q-15.81-4.26-24.78-7.44,10.62-6.75,22.59-13.29a4.55,4.55,0,0,0-2.36-8.44"/><path class="cls-7" d="M175.07,119.36q-8.37.28-14.21,7.77a28.52,28.52,0,0,0-5.37,18.15,29.16,29.16,0,0,0,6.67,17.88q6.36,7.17,14.74,7.08,8.35-.31,14.2-7.8a28.48,28.48,0,0,0,5.34-18.06,29.15,29.15,0,0,0-6.63-17.9q-6.34-7.2-14.72-7.12"/><path class="cls-3" d="M182.87,128.72a4.7,4.7,0,0,0-3.91,2.72,11.44,11.44,0,0,0-1.23,6.37,12.41,12.41,0,0,0,2.18,6.33q1.93,2.55,4.3,2.54a4.74,4.74,0,0,0,3.91-2.72,11.51,11.51,0,0,0,1.24-6.37,12.41,12.41,0,0,0-2.18-6.33c-1.29-1.71-2.72-2.55-4.3-2.54"/><path class="cls-7" d="M214.09,173.71l-3,.29a8,8,0,0,0-1.36.23,4.77,4.77,0,0,0-2.51,1.61,8.24,8.24,0,0,0-1.77,4.55,17.46,17.46,0,0,0-.06,2.49h0a24.08,24.08,0,0,0,47.05.18h0l.12-1.49a12.55,12.55,0,0,0,0-1.69,7.12,7.12,0,0,0-1-3.41,4.89,4.89,0,0,0-2.26-1.93,6.65,6.65,0,0,0-1.8-.54H237.21Z"/><path class="cls-8" d="M229.12,185.46a13,13,0,0,0-7.06,1.73,6,6,0,0,0-3.18,4.5,5.35,5.35,0,0,0,2.54,4.66,12.16,12.16,0,0,0,6.78,2.07,13.1,13.1,0,0,0,7.06-1.72,6,6,0,0,0,3.18-4.5,5.34,5.34,0,0,0-2.54-4.67,12.16,12.16,0,0,0-6.78-2.07"/><path class="cls-9" d="M152.85,171.29a22.57,22.57,0,0,0-13.33,4.24q-5.6,4.26-6.16,10.2A12,12,0,0,0,138,195.9a19.75,19.75,0,0,0,12.67,4.21,22.6,22.6,0,0,0,13.25-4.21q5.61-4.25,6.2-10.19a12,12,0,0,0-4.55-10.19,19.74,19.74,0,0,0-12.65-4.23"/><path class="cls-9" d="M302.05,165.08a23.08,23.08,0,0,1,14.29.89q6.63,2.84,8.66,8.6a12.22,12.22,0,0,1-2,11.24,20.21,20.21,0,0,1-11.53,7.34,23.1,23.1,0,0,1-14.22-.88q-6.63-2.82-8.69-8.57a12.25,12.25,0,0,1,2-11.25A20.25,20.25,0,0,1,302,165.08"/><path class="cls-7" d="M426.68,101.94q-1.87-.72-20.87,10.45-9.74,6.06-12.62,9.35a2.54,2.54,0,0,0,3.38,3.29q6.94-5.3,9.78-7,12.21-7.31,15-8.52L416.79,121l-5.24,12.5-6.06,13.87a2.54,2.54,0,0,0,4.68,1.93q6.27-14,11.63-27.12l6.54-16.7A3,3,0,0,0,426.7,102"/><path class="cls-7" d="M432.7,52.69a2.59,2.59,0,0,0-2.71.9l-21.17,22.6-15.49,17-10,10.46q-2.52,2.55-5.61,5.2-1.68,2.77,1.14,4.14a2.54,2.54,0,0,0,2.2-.34,84.61,84.61,0,0,0,6.21-5.75l10.15-10.66,15-16.48,13.72-14.62Q416.48,93.29,405.77,113a2.54,2.54,0,0,0,4.29,2.45Q420.11,98,431.21,66.09a102.91,102.91,0,0,0,3.45-10.64,2.42,2.42,0,0,0-1.86-2.73"/><path class="cls-7" d="M403.6,51.77q-1.17-.35-5.38,2.64A63,63,0,0,0,390,61.2a73.25,73.25,0,0,0-11.31,15.19,82.18,82.18,0,0,0-8.54,23.78,51.64,51.64,0,0,0-.78,5.12,17.24,17.24,0,0,0,.2,3,2.54,2.54,0,0,0,4.92.43q-.62-4,2.48-15a74.43,74.43,0,0,1,6.39-15.26A69.36,69.36,0,0,1,391.53,67,49.14,49.14,0,0,1,400,59.39l.05,0q-.33,1.74-1.6,14.1L397.31,89.3a2.54,2.54,0,0,0,4.75,1,2.49,2.49,0,0,0,.31-1l1.07-14.7.87-8.36q.62-6.16,1.76-12c.05-1.46-.76-2.3-2.45-2.53"/></g></g></svg>