<svg xmlns="http://www.w3.org/2000/svg" viewBox="0 0 265.88 350.42"><defs><style>.cls-1{fill:#c8c8c8;}.cls-2{fill:#fff;}.cls-3{fill:#ddd;}.cls-4{fill:#a86c47;}.cls-5{fill:#7d5336;}.cls-6{fill:#d69269;}.cls-7{fill:#9b9b9b;}.cls-8{fill:#cfcfcf;}.cls-10,.cls-9{fill:#3d3e40;}.cls-9{fill-opacity:0.27;}.cls-11{fill:#ff7491;}.cls-12{fill:#e5e5e5;fill-opacity:0.34;}.cls-13{fill:#e9e9e9;}.cls-14{fill:#a8a1a1;}</style></defs><title>mining</title><g id="Calque_2" data-name="Calque 2"><g id="Calque_1-2" data-name="Calque 1"><path class="cls-1" d="M84.37,176.52q-24.16,4-27,6.36-17,10.2-17.32,11a61.55,61.55,0,0,0-10.17,10.42A26.11,26.11,0,0,0,26,211.78Q24,219,21.23,232a53.91,53.91,0,0,1-1.64,5.42q-.4,2.09-7.63,15.35-1.4,3.07-4.29,12.06-4.35,13.86-3.9,25.35a74.91,74.91,0,0,0,1,11.94q1.7,11.36,3.54,14.4,5,9.61,16.54,17.24Q33.63,340,53,343.33q16.82,1.82,26.45,1.91c1.45,0,2.78,0,4,0h0q7.38,1.13,16.37,1.86t18.55,1q7.58.08,15.61-.33,14.42-.75,21-2.58c.27-.05.54-.12.82-.2h0q2.14-.12,4.08-.27,14.56-1.11,27.13-2.86,32.7-4.94,36.6-7.22a13.32,13.32,0,0,0,3.11-3.71h0a21.5,21.5,0,0,0,10.26-6.06,62.91,62.91,0,0,0,5.63-6.24l9.25-12.28a62.82,62.82,0,0,0,6.51-10.93,41.1,41.1,0,0,0,2.31-7.43,59.31,59.31,0,0,0,.53-9.22q0-3-1.16-11.89-1.67-12.57-2.92-18l-1,.83h0q-2.47-10.75-11.69-21-4.69-5.12-13.53-10-8.9-5.29-14.74-6.65L215,213h0q-1.77-1.83-3.85-3.9-14.22-13.58-19-15.39l-.44-.24h0c-.11-.46-.66-1-1.63-1.49a72,72,0,0,0-8.27-4.76,39.86,39.86,0,0,0-12.24-3.61c-1.53-.2-3.32-.35-5.38-.44l-5.53,0q-5.94-.06-12.76-.25l-34.66.52c-1,.15-1.38.43-1.2.83q1.19,4.77,5.32,18.23l.79,3.29c0,.3,0,.45-.11.45a.12.12,0,0,1-.09-.06,85.61,85.61,0,0,1-7.23-5.83L96.18,189a31.38,31.38,0,0,0-5.42-3.75,30.14,30.14,0,0,0-6.34-2.44h0l0-6.08Z"/><path class="cls-2" d="M158.45,248.79a19.68,19.68,0,1,0,.09,0"/><path class="cls-2" d="M87.75,250.29a19.68,19.68,0,1,0,.09,0"/><path class="cls-3" d="M102.76,11.15q-6.76,4-14.69,14.59Q78.25,39.39,74.58,48.53a155.41,155.41,0,0,0-12.82,54.79h0a24,24,0,0,0-2.34.76c-1.08.63-1.83,3-2.28,7.2a51.25,51.25,0,0,0,.9,12.47,44,44,0,0,0,4.15,10.67c1.39,1.23,3.76,2.05,7.13,2.46l.44.07h0a118.5,118.5,0,0,0,5,15.57A121.7,121.7,0,0,0,84,171.62a88.93,88.93,0,0,0,10.79,14.46Q112.29,204,113.34,204h0c.3,0,.41-.81.35-2.42a50.31,50.31,0,0,0-1.18-7.49c-.35-1.52-.91-3.49-1.68-5.88q-4.43-12.85-4.88-14.51-.78-2.44-2.21-7.92-7.07-27.4-7.68-33.9h0c1.64-.61,3.35-1.27,5.1-2,.78-.39,1.42-1.55,1.93-3.49L96.54,99.67v0l-.5,0h0Q92.31,76.81,93.44,64,92.92,63,98,33.17q1.16-7,4.8-22Z"/><path class="cls-4" d="M191.39,78.18q-3.16-3.11-4.88-2.13L167.16,86.13a54.45,54.45,0,0,1-6.39,2.72L134.51,97.5q-6,1.91-30.14,8.31l-5.5,18c1.89,0,4,0,6.27-.07q16.83-.83,18-1a129.78,129.78,0,0,0,14.1-1.94q5-.94,7.79-1.68,7.71-1.86,16.67-4.53a97.78,97.78,0,0,0,14.5-5.71q4-1.77,17.75-10.36a12.79,12.79,0,0,0,4.14-4.33q2.29-6.44-6.61-15.88"/><path class="cls-5" d="M195.31,90.38l-4-7q2,5.1-2.57,9.34a41.57,41.57,0,0,1-16.58,10.66,125.47,125.47,0,0,1-19.94,6l-15.82,3.06-8.78,1.49-16.5,2.38-6.72,1.2a.58.58,0,0,0-.41.32c-.16.08-.17,1.26,0,3.53.07.62.26,1,.57,1q3,.63,12.44-.32,4.62-.43,10.18-1.35,9.36-1.53,16.89-3.21l6.17-1.52,15.77-4.4q23.18-7.68,29.39-21.08"/><path class="cls-6" d="M187.35,77q-3.1,1.2-14.24,6.32l-5.42,2.23c-1.32.51-2.84,1-4.55,1.61l-14.37,4.56c-2.1.69-4.82,1.41-8.18,2.18l-20.26,4.29a58.67,58.67,0,0,0-7.07,2.09q-11.17,4.27-12,8.47a11.72,11.72,0,0,0,1.19,2.08.66.66,0,0,0,.66.35q5.3-1.32,20.5-3.37,2.7-.25,21.23-5.29,3-.73,9.8-3.12A199.82,199.82,0,0,0,173.08,91a174.93,174.93,0,0,0,15.58-9.71l-1.29-4.21"/><path class="cls-2" d="M100.76,12.7,91,20.31A85.78,85.78,0,0,0,85,29a152.07,152.07,0,0,0-16.74,34,113.25,113.25,0,0,0-4.83,18q-1.95,11-1.45,17.47c.32,2.79.71,4.17,1.18,4.13q7.41-2.2,7.76-2.85A189.68,189.68,0,0,1,74,78.38a232.72,232.72,0,0,1,6.9-25.24,157.44,157.44,0,0,1,7.69-19.33q2.43-5.22,12.21-21.1"/><path class="cls-2" d="M60,100.87a111.35,111.35,0,0,0-1.6,12.31,49.71,49.71,0,0,0,0,8.58q.8,8.07,4.9,10.63c.65.39,2.07.48,4.25.29a20.93,20.93,0,0,0,2.72-.41.87.87,0,0,0,.39-.21.38.38,0,0,0,0-.3,73.19,73.19,0,0,1-3.55-14.13,45.08,45.08,0,0,1-.49-5.81q0-4,.37-7.54l-7-3.41"/><path class="cls-2" d="M74.16,135.32l-6.25,0c.24,1.29.42,2.19.55,2.69A133.59,133.59,0,0,0,82.84,170.7q5.13,8.91,16.67,21.19a110.17,110.17,0,0,0,8.23,7.7q9.12,7.33,10.29,7.72-1.59-1.42-18.79-23-4.08-5.23-9.86-14.46-8.55-12.77-15.19-34.44"/><path class="cls-2" d="M92.08,133.57c-1.12,0-1.79.26-2,.71Q78.49,150,74.94,155.22l6.12,11.92q2.41-3.25,8.61-10.65l2.58-3.32q3.1-4.17,5.65-8.24c.13-.1-.23-1.59-1.07-4.49a25.27,25.27,0,0,0-1.58-4,11.26,11.26,0,0,0-1.69-2.59,1.79,1.79,0,0,0-1.45-.32"/><path class="cls-2" d="M100,157.23s-.12,0-.23.15L98.42,159l-7.27,8.67c-1.63,2-3.32,4.31-5.08,6.85l4.38,7.72q8.53-10.47,11.4-16a1.43,1.43,0,0,0,.1-.84q-1.56-6.21-1.72-7.74c0-.28-.12-.42-.21-.43"/><path class="cls-2" d="M92.33,61.46c-1.6.07-4.29,1-8.1,2.84a97.54,97.54,0,0,0-10.88,6.58L68.64,92.26l8.84-4.87q7.65-3.81,10.12-5.17.65-.18,5.29-4.06c.13-.06.2-.5.2-1.34,0,0,0-2.82-.23-8.43l0-6.56c0-.22-.1-.35-.44-.37"/><path class="cls-2" d="M78.72,179.5q-13.39.17-29.64,8.16A51.37,51.37,0,0,0,30,204.36a29,29,0,0,0-3.64,8.43q-.16-.63-3.66,17.86a63.89,63.89,0,0,1-2,6.56,62.3,62.3,0,0,1-2.57,6.19q-7,12.67-7.24,13.71a60.26,60.26,0,0,0-3.09,9.52q-4.2,15-.56,24.57a135.58,135.58,0,0,0,2-14.7,24.56,24.56,0,0,1,1.58-5.38q3.66-7.28,13.92-20a35.26,35.26,0,0,0,3.29-6.43,53,53,0,0,0,1.81-6.7l3.89-20.48A18.62,18.62,0,0,1,36,212q5.85-8.07,25.8-17.77a41.88,41.88,0,0,1,5.29-1.93q7-1.49,14.2-3.68Q83.12,188,94,187L78.8,179.54"/><path class="cls-7" d="M194.61,194.12q11.71,15.81,14.44,18,3.07,3.65,17.11,12.36a46.75,46.75,0,0,1,5.1,4.53,63,63,0,0,1,9.23,12.7,31.55,31.55,0,0,1,3.18,9.06l1.9,17.8a57.86,57.86,0,0,1-1.4,18.28q-2.53,9.38-13,21.44a40.25,40.25,0,0,1-5.44,5.22q-13.86,11-16.07,11.92a89.58,89.58,0,0,1-20.24,9.42Q180,338,155,342.22l28.05-1.46L196.7,339a175.68,175.68,0,0,0,21.42-4.72,43.33,43.33,0,0,0,9.18-3.57q10.32-4.5,19.32-16.49,12-14.78,15.86-27.24,3.09-9.27,0-24.81-3.9-17.77-10.82-26.46a54.48,54.48,0,0,0-9.3-10l-47.58-31.49"/><path class="cls-8" d="M168.57,253.05q5.38,4.92,5.25,10.52.3,6.75-4.27,13.44-4,5.72-9,7.32a21.14,21.14,0,0,1-6,.9,47.1,47.1,0,0,1-8.43-.94l0,0,.25.2a24.73,24.73,0,0,0,15.5,4q7.54-1.37,11.18-6.91,5.57-7.95,4.33-16.29a36,36,0,0,0-2.36-7.93l-6.4-4.26"/><path class="cls-8" d="M73.89,256.91l-7.78,9.65.07,1.31a27.69,27.69,0,0,0,3.57,10.7q2,3.51,7.51,8.22,6.88,5.5,14.53,3.51t12-9.65a41.16,41.16,0,0,0,3.31-7.39,26.11,26.11,0,0,1-5.74,7.85,20.28,20.28,0,0,1-7.53,3.78q-8.25,2.1-16-3.79a18.23,18.23,0,0,1-6.52-11.36,18,18,0,0,1,2.55-12.8"/><path class="cls-9" d="M97.28,99.66l-6.63,2.25q1.3,7.38,1.55,10.16a81.32,81.32,0,0,1,.36,9.14,19.44,19.44,0,0,1-2.8,10.28c0,.07.12.1.34.08l4.88-.34a2.15,2.15,0,0,0,.87-.25A7.38,7.38,0,0,0,99,126.11a38.22,38.22,0,0,0,.42-10.66q-.33-4.77-.89-8.8-.09-1.11-1.24-7"/><path class="cls-9" d="M99.39,12.52q-2.76,9.4-7.52,24.19-1.22,4.09-1.73,6.55c-.54,2.71-.86,4.54-1,5.48q-.18.9-1.35,10.46-.11.24-1.41,14.39A79,79,0,0,0,86.1,83q0,1.35.54,8.91.36,5,.59,6.76c.29,1,1.83,1.63,4.61,2l7.54-88"/><path class="cls-9" d="M90.32,133.74q.45,3.18,1.75,14.71c.43,3.21.75,5.35,1,6.4a114.9,114.9,0,0,0,3.45,13.06,128.51,128.51,0,0,0,6.31,15.87,85,85,0,0,0,8,12.87c.17-.06-.08-1.37-.73-3.94q-.21-1.22-6.19-21.33-1.59-5.7-2.41-9.67c-.79-3.47-1.63-7.76-2.49-12.85l-.66-4.64-1.4-10.8-6.55.32"/><path class="cls-10" d="M98.93,16.33Q91.4,42.91,90.42,78.92q-.15,5.1.27,16.94l0,.82h0l-26,3h0q.63-8.11,2.16-16.8a166.78,166.78,0,0,1,7.07-26.32l6.17-13.66q.89-1.92,5.9-10.09a121,121,0,0,1,13-16.44Zm3.49,85,.25,2.19.35,3.09h0Zm83.45-21.28.32.08h0c.15,0,.32.12.5.2h0c.22.1.41.2.59.3h0l.62.4h0c.23.16.44.31.62.46l0,0c.18.14.36.29.53.45s.39.36.59.56.34.35.49.52v0h0c.15.17.31.37.49.6s.34.46.49.69h0c.17.24.33.5.49.78h0c.17.28.32.54.45.79s.26.49.37.73l.36.79c.12.29.24.58.35.89h0c.11.3.2.56.27.8h0q.1.33.18.66h0a6,6,0,0,1,.1.63h0a3.79,3.79,0,0,1,0,.57c0,.24,0,.46,0,.68s-.07.41-.13.65a2.7,2.7,0,0,1-.16.48,4.42,4.42,0,0,1-.23.44h0a6.52,6.52,0,0,1-.42.59c-.16.22-.32.41-.47.58s-.34.38-.52.57h0l-.6.59h0l-.63.59-.77.67-.91.76h0l-1,.79h0l-.89.69h0l-.78.56-.82.57q-.42.28-.84.54h0l-.9.56-.92.54-1,.54h0l-1.09.61-1.17.65-1.07.58-.9.47c-.29.16-.62.32-1,.5l-1.09.51h0l-1,.45-.85.37h0l-1,.42-1.18.48-1,.41h0l-1,.39-1.17.44h0l-1.13.41h0l-1,.36-1.12.37h0l-1,.34h0l-1,.32-1,.3h0l-.89.28-1.05.33-1,.31-1,.27-.9.26h0l-1,.25-1.14.3h0l-1.29.32-1.24.31-1.16.29-1.16.27-1.06.25-1,.22h0l-1,.23h0l-1.2.25h0l-1.21.25-1.13.22-1.07.21-1,.2-1.14.22-1.16.22-1.27.23-1.16.21h0l-1.14.18h0l-1.22.2h0l-1.16.19-1.1.19-1.07.17-1.19.19-1.24.18h0l-1.08.15h0l-1,.12h0l-1.12.13h0l-1.08.14-1,.12-1,.12-1,.13-1.06.12-1.2.14-1.3.13-1.13.1h0l-1.41.13-1.44.13-1.09.11-1.09.11h0l-1.09.12h0l-1.11.1-1.23.1h0l-1.07.08-.91.07-1,.07h0l-.48,0h0l-1.36-11.85h0l.73-.18,1.61-.41,1.41-.35,1.06-.26h0l1.17-.29h0l1.16-.29h0l1.41-.36h0l1.31-.34,1.24-.34h0l1.46-.39,1.74-.44,1.76-.44,1.34-.35,1.43-.38,1.47-.4,1.61-.43h0l1.67-.45,1.64-.44,1.64-.42,1.39-.37,1.3-.34h0l1.26-.33h0l1.32-.35,1.46-.4,1.33-.37,1.24-.35,1.31-.38,1.39-.42h0l1.34-.4,1.34-.4,1.2-.38h0l1-.33,1.19-.4,1.19-.42h0l1.09-.39,1.26-.47h0l1.18-.45h0l1.14-.44c.48-.18.9-.34,1.26-.49h0l1.06-.4h0l1.11-.43,1.24-.47h0L160,92l1-.39h0l1.08-.45h0l1.07-.45,1-.41,1.08-.47,1.16-.53h0l1.19-.54,1.17-.55,1.23-.59h0l1.18-.58h0l1-.48,1.09-.55h0l1.07-.53h0l.92-.46.89-.43.91-.45.91-.43.9-.43,1-.43h0l1-.45h0l1-.43h0l1.1-.49L184,81l1-.49.89-.42ZM96,102.59l2.09,18.54h0l.76,6.73-30.37,3.46h0l-5.7.65L60.62,113h0l-.25-2.21h0l-.47-4.06,30.66-3.54h0L96,102.6ZM66,138.16l-2,.23-.67.07h0Zm79.65,60.6ZM93.59,135h0c.25,1.94.49,3.55.71,4.82q5.82,34.8,16.73,59.56a117.75,117.75,0,0,1-14.82-14.2q-6-7.23-7.09-9L81.29,163.8a164.4,164.4,0,0,1-10.42-24.57c-.17-.52-.34-1-.5-1.57h0L93.59,135Zm65.28,98.63h0a1.82,1.82,0,0,0-1.14,3.23q12.35,7.49,16.4,9.79a1.73,1.73,0,0,0,.88.25H175a1.81,1.81,0,0,0,1.13-3.23c-.06-.09-2.16-1.33-6.28-3.71l-10.11-6.09A1.78,1.78,0,0,0,158.87,233.64Zm-71.24,1.21a1.68,1.68,0,0,0-.9.23L76.5,241c-4.17,2.31-6.28,3.51-6.35,3.59a1.82,1.82,0,0,0,1.07,3.26h0a1.85,1.85,0,0,0,.89-.23q4.09-2.22,16.58-9.48a1.84,1.84,0,0,0,.61-2,1.82,1.82,0,0,0-1.69-1.25Zm41.22,9.66a1.67,1.67,0,0,0-1.08.39,9.55,9.55,0,0,0-1.14,1.46,14.38,14.38,0,0,0-1.92,4.49,12.81,12.81,0,0,0-.26,4.35,1.67,1.67,0,0,0,3.15.29,1.71,1.71,0,0,0,.14-.56q0-1.1,0-1.35a7.15,7.15,0,0,1,.07-1,10.25,10.25,0,0,1,.4-1.77,10.82,10.82,0,0,1,.79-1.86,9.94,9.94,0,0,1,.54-.89c.06-.1.31-.43.74-1a1.78,1.78,0,0,0,.21-.52,1.67,1.67,0,0,0-1.6-2Zm-11.68.81-.25,0h0a1.6,1.6,0,0,0-1.17.78,1.65,1.65,0,0,0-.13,1.41,2.08,2.08,0,0,0,.28.47c.49.49.77.77.84.86a9.73,9.73,0,0,1,.64.8,10.52,10.52,0,0,1,1,1.71A10.9,10.9,0,0,1,119,253a9.31,9.31,0,0,1,.2,1c0,.16.07.6.14,1.31a1.6,1.6,0,0,0,.21.54,1.63,1.63,0,0,0,1.39.78h.24a1.64,1.64,0,0,0,1.39-1.46,12.55,12.55,0,0,0-.81-4.2,14.11,14.11,0,0,0-2.44-4.12,10.89,10.89,0,0,0-1.3-1.28A1.65,1.65,0,0,0,117.17,245.32Zm30.72,15.6a4.88,4.88,0,0,0-3.54,8.29,4.88,4.88,0,0,0,6.91.07,4.88,4.88,0,0,0-3.37-8.36Zm-49.8,1.41a4.87,4.87,0,0,0-4.92,4.85,4.87,4.87,0,1,0,4.92-4.85Zm60.12-11.9a19,19,0,1,1-.08,0ZM88,251.65h.08a19.27,19.27,0,1,1-.08,0Zm70.27-5a21.91,21.91,0,1,0,.08,0ZM88,247.92h-.08a22,22,0,1,0,.08,0Zm89.8,36.66a1.82,1.82,0,0,0-1.14.4l-.25.25a8.78,8.78,0,0,1-.94,1.22,20.9,20.9,0,0,1-1.55,1.6,22,22,0,0,1-3.16,2.28,18.94,18.94,0,0,1-2.78,1.33c-1,.36-1.64.58-2,.67-.07,0-.86.22-2.4.57a1.76,1.76,0,0,0-1.13,2.3,1.78,1.78,0,0,0,1.64,1.17A24,24,0,0,0,176,291a24.35,24.35,0,0,0,2.46-2.53c.75-.95,1.1-1.48,1-1.6a1.82,1.82,0,0,0-.29-1.55,1.79,1.79,0,0,0-1.39-.71h0Zm-110.09.84h0A1.77,1.77,0,0,0,66,287.64q-.09.18,1,1.62a22.46,22.46,0,0,0,2.41,2.58,23.94,23.94,0,0,0,11.75,5.62,1.78,1.78,0,0,0,1.2-3.09,1.83,1.83,0,0,0-.62-.37c-1.53-.37-2.33-.57-2.39-.61-.32-.09-1-.33-1.95-.71a20.59,20.59,0,0,1-2.76-1.38A22,22,0,0,1,71.53,289,19.72,19.72,0,0,1,70,287.33a8.86,8.86,0,0,1-.92-1.24,1.93,1.93,0,0,0-.24-.25A1.76,1.76,0,0,0,67.72,285.42Zm54.41,6.18h-.34a14.9,14.9,0,0,0-10.14,4.11,15.11,15.11,0,0,0-3.41,4.59,12.1,12.1,0,0,0-1.45,5.07,4.11,4.11,0,0,0,.2,1.54h0a1.18,1.18,0,0,0,.07.2,10.68,10.68,0,0,0,.91,1.54,5.64,5.64,0,0,0,.93,1l.38.31c.3.18.53.33.68.44h0a13,13,0,0,0,1.9.76,27.14,27.14,0,0,0,6.37,1.39c.88.12,2,.22,3.29.3l1.26,0c.41,0,.8,0,1.15,0a35.35,35.35,0,0,0,5.64-.7,17.83,17.83,0,0,0,4-1.46,6.61,6.61,0,0,0,2.39-2l.24-.35h0a4,4,0,0,0,.93-2.76,12,12,0,0,0-1.36-5.1,15.46,15.46,0,0,0-13.35-9h-.3ZM85.7,183.48q6.76,8.66,9.56,11.18a108.1,108.1,0,0,0,9.38,8.64h0a21.85,21.85,0,0,0-2.81,1.31,23,23,0,0,0-3.07,2,22.69,22.69,0,0,0-2.65,2.44,9.43,9.43,0,0,1-1,.7,16.59,16.59,0,0,1-1.56.91c-.39.21-1.38.67-3,1.37q-.11,0-.09.09a3.1,3.1,0,0,0,1.49.49L94,213h.16a1.13,1.13,0,0,0,.3,0,11.58,11.58,0,0,0,3.46-1.7l.24-.05a5.37,5.37,0,0,0,1-.11,11.45,11.45,0,0,0,1.12-.3h0c.47.77,1.08,1.77,1.85,3a14.74,14.74,0,0,0,1.1,1.59c0,.22,1.14.95,3.37,2.19a4.59,4.59,0,0,1,.74.69A27.64,27.64,0,0,1,111,224a.8.8,0,0,1,0,.31c-.56,1.9-.89,3.06-1,3.47-.58,2.66-1,4.24-1.1,4.73l-.33,1.15-.59,1.7a2.68,2.68,0,0,0,1.71-1.25,40.56,40.56,0,0,0,1.83-4.21l.93-1.19a5.75,5.75,0,0,0,.42-.71,19.09,19.09,0,0,0,.86-2.42,2.63,2.63,0,0,1,.39-.68l.14-.21h0v0c.62-.59,1.16-1.06,1.62-1.42a9,9,0,0,1,1.14-.76,13.18,13.18,0,0,1,1.4-.65c.35-.14,1-.36,2-.66,0,0,0,0,0,0h0a7.88,7.88,0,0,0-1.55-.41,11.65,11.65,0,0,0-1.48-.19c-.75,0-1.47-.07-2.18-.08h-1.15a27.16,27.16,0,0,1-3-2,23,23,0,0,1-2.49-2.71L107,214.41a6.13,6.13,0,0,1-.6-.68,28.19,28.19,0,0,1-2.53-4.48h0l.36-.16,1.84-.7a8.69,8.69,0,0,0,1.09-.52,15.67,15.67,0,0,0,1.68-1.14h0l.64.51a87,87,0,0,0,8.93,6,4.93,4.93,0,0,0,2.54.87,3.15,3.15,0,0,0,.44,0h0l.14.07c.5.24.92.43,1.28.56,1.12.38,2.07.73,2.85,1h0l2.1,2.33a7.72,7.72,0,0,0,.85.74c1.16.79,2,1.39,2.61,1.82h0c-1.37,3-2.11,4.64-2.23,4.78a7.23,7.23,0,0,1-2.48,1.93,3,3,0,0,0-.4.61,9.22,9.22,0,0,0-.65,1.82c-.18.72-.31,1.25-.37,1.59l-.23,1.2c0,.06,0,.1,0,.11s0,0,.07,0a5,5,0,0,0,1.26-.4,8.77,8.77,0,0,0,1.9-1,3.57,3.57,0,0,0,.56-.74,12.19,12.19,0,0,0,.73-1.46l.13-.22a17.74,17.74,0,0,1,1.56-1.79,7.2,7.2,0,0,0,.71-1.11,18.78,18.78,0,0,0,1.35-3.69h0a4,4,0,0,1,.46.6,21.73,21.73,0,0,0,1.41,2.49,8.38,8.38,0,0,0,1.13,1.39,6.91,6.91,0,0,0,2.28,1.24,8.1,8.1,0,0,0,1.89.73.15.15,0,0,0,.08,0h0a73.4,73.4,0,0,0-5-6.94l-1.41-1.6q-5.15-4.86-5.05-5.05a15.82,15.82,0,0,1-1.51-4.16h0a31.16,31.16,0,0,0,3.08-1.95,23.44,23.44,0,0,0,4.26-3.69,4.27,4.27,0,0,0,.39-.59h0l2.29.06c.41,0,.83,0,1.25.09.26,0,.54.08.82.14q1.59.42,1.65.42h0a22.22,22.22,0,0,1,2.47.41,7.87,7.87,0,0,1,1.39.44l.43.22c.6.35,1.05.6,1.38.77l1,.51a7.45,7.45,0,0,0,1.61.62h0a15.49,15.49,0,0,0-3.29-3.83,2.46,2.46,0,0,0-.48-.25c-1.28-.39-2-.64-2.26-.75l-.64-.32h0c.89-1.37,1.52-2.33,1.88-2.85l.06-.09h0l.09-.11a6.44,6.44,0,0,0,.6-1h0c.1-.16.18-.32.26-.48h0l-.07.08h0c.17-.41.36-1,.57-1.66a2.4,2.4,0,0,1,.2-.39,3.71,3.71,0,0,1,.5-.63,7.75,7.75,0,0,1,.92-.86,1.74,1.74,0,0,0,.22-.27q.78-1.54-.21-5.22h0c0-.05,0-.08-.07-.08s-.07,0-.11.11c-.23.46-.64,1.21-1.21,2.24a3.13,3.13,0,0,0-.19.62l-.16,1a2.47,2.47,0,0,1-.29.64,10.18,10.18,0,0,1-.9,1.25c-.37.45-1,1.15-1.86,2.11a2.37,2.37,0,0,0-.2.27,39.32,39.32,0,0,0-2.3,4.33h0l-.13,0a5,5,0,0,0-.67-.1h-.1c-1.65.13-3.16.23-4.52.29h0a4.94,4.94,0,0,0-.45-1.49l-.3-.6s-.52-.93-1.45-2.66l-.79-1.55-.25-.47-.07-.09h0a5.52,5.52,0,0,0-.62,1.34.26.26,0,0,0,0,.14l.16.47a1.8,1.8,0,0,1,0,.34,13.39,13.39,0,0,1-.4,1.88.2.2,0,0,0,0,.09c.06.11.13.23.21.35s.22.33.6.84a2,2,0,0,1,.14.22,5.39,5.39,0,0,1,.29.84,6.28,6.28,0,0,1,.15,1c0,.21,0,.42,0,.64l0,.82v.08h0c-.23.24-.84.81-1.85,1.72-.33.3-.76.66-1.27,1.09a8.34,8.34,0,0,1-1.93,1.25,9.52,9.52,0,0,1-2.78.68h0a5.63,5.63,0,0,0-.31-.68q-3.91-6.78-5.24-9.5t-3.26-7.06c-.74-2-1.45-3.92-2.1-5.76H114q6.93.06,25-2.13c1.62-.08,3.14-.11,4.58-.1,1.71,0,3.29.1,4.74.25h.2q4.13,0,19,4.49,11.23.66,13.27,1.41a37.12,37.12,0,0,1,9,3.46,21.78,21.78,0,0,1,4.41,3.14q12.35,13.56,16.38,15.94a29.92,29.92,0,0,0,5.59,3q8.37,1.62,13,4.28a43,43,0,0,1,11.12,8.54q12.14,12.27,17.16,33.73,2.88,17.83-1.28,29.87.09,1.53-9.53,14.58l-5.58,9.72a32,32,0,0,1-7.44,7.14q-10,8.12-35.76,12.77a358.46,358.46,0,0,1-44.9,5.58h0l.47-.14h0L152,342c-1.91.12-3.55.21-4.91.26-.57,0-2.14,0-4.7,0l-1.62,0c-1.11,0-2,0-2.78,0-1.32,0-2.19,0-2.59.05l-3,.19c-2.37.21-4.74.39-7.08.55h0q-4.48,0-9.39,0Q98.5,342.93,76.09,342q-19.8-.78-30.52-3.77-9.23-1.68-23-11.46Q12,319,9.27,312.36q-.39-13.67-2-26.69a71,71,0,0,1,1.38-14.09,54.23,54.23,0,0,1,3.65-11.11q1.07-2.69,8.73-14a38.1,38.1,0,0,0,2.89-6.35,36,36,0,0,0,1.71-6.45q.9-14.32,1.78-16.1,2.27-9,5.21-12.89a19.72,19.72,0,0,1,7.25-6.35l18.75-10.23a52.59,52.59,0,0,1,8.06-3.26,33.18,33.18,0,0,1,9-1.33h10ZM107.35,0a4.57,4.57,0,0,0-3,1.27,88.56,88.56,0,0,0-8.18,7.34A145.46,145.46,0,0,0,83.65,23.32q-2.7,3.22-9.17,14.53-.58.54-7,15.25Q61,69.35,57.91,93.74c-.24,2.46-.43,4.71-.56,6.73h0l-1.47.17a3.27,3.27,0,0,0-2.83,3.5l3.67,32a3.26,3.26,0,0,0,3.17,2.73l3.37-.39h0A151.74,151.74,0,0,0,75.5,168q3.07,5,5.09,8.17h0c-2.88,0-4.92,0-6.11.1a38.81,38.81,0,0,0-13.38,2.79A63,63,0,0,0,54,182.26L32.4,194.5q-5.85,4.26-9.35,12.74a66.87,66.87,0,0,0-3.24,11c-.37,1.13-.8,5.72-1.29,13.8a27.51,27.51,0,0,1-1.28,5.15,31.86,31.86,0,0,1-2.42,5.5q-8.07,11.91-9.33,15.2a63.57,63.57,0,0,0-4.2,13.39A83.32,83.32,0,0,0,0,285.72a264.09,264.09,0,0,1,1.94,26.73q4.22,15.89,33.09,30,16.61,6.23,40.08,6.81,25.69,1,42.45,1.13,21.08.19,28-.87h.25q7.39.08,24.6-1.56a281.88,281.88,0,0,0,42.34-7.26q22.56-5.59,33.45-18.84,1.17-1,7.08-11.89l7-9.87a31,31,0,0,0,2.59-5q3.38-8.62,2.95-22.84-2.58-33-24.8-52.71l-.1-.08a49.57,49.57,0,0,0-10.37-6.65,41.6,41.6,0,0,0-11.38-3.47,20.54,20.54,0,0,1-3.67-1.84,33.47,33.47,0,0,1-5.24-4.21q-12.39-13.32-13.11-13.33s0,0,0,0a39.64,39.64,0,0,0-12.73-6.16q-5-1.61-15.65-2-14.61-4.66-22.55-4.77a21.87,21.87,0,0,0-2.55-.14q-7-.07-24.72,2.12a35.38,35.38,0,0,1-3.61.09c-1.23,0-2.7-.05-4.4-.11h0q-1.64-4.93-2.67-8.74-4.17-15.86-6-26.07-.73-3.37-1.6-10h0l-2.51.29h0l4.76-.54a3.27,3.27,0,0,0,2.84-3.49l-.32-2.74h0l-.82-7.22.82,7.22h.22l1-.08.94-.07,1.1-.08h0l1.29-.1h0l1.22-.12,1.08-.11,1.08-.11h0l1.08-.11h0l1.36-.13,1.39-.12,1.21-.11,1.38-.14h0l1.27-.15h0l1.08-.12h0l1-.13h0l1-.12h0l1-.12h0l1.09-.14h0l1.1-.13,1-.13,1.18-.15h0l1.35-.2h0l1.25-.2,1.11-.18h0l1.07-.18,1.13-.19h0l1.24-.2,1.16-.19,1.27-.22,1.32-.25,1.15-.21,1.16-.22h0l1.09-.21,1.07-.21,1.18-.23,1.21-.25,1.28-.27,1.1-.24h0l1-.23,1.08-.25h0l1.22-.29,1.2-.29,1.28-.32,1.32-.34,1.15-.3,1.06-.28h0l1-.28,1-.28h0l1.13-.34,1.07-.33h0l.91-.28,1-.31,1.07-.34h0l1-.34h0l1.16-.39h0l1.2-.41,1.18-.44,1.27-.48h0l1-.4h0l1-.41,1.24-.5h0l1.09-.45,1-.41,1.12-.51c.42-.19.83-.38,1.25-.59l1.14-.57h0l1-.51,1.13-.62c.45-.24.86-.46,1.24-.68l1.12-.63,1-.57,1-.59h0c.39-.23.74-.44,1.08-.66h0c.34-.21.67-.43,1-.65h0l1-.68.93-.67,1-.77h0l1.11-.89h0l1.06-.88.9-.8.76-.7h0v0c.26-.24.51-.49.76-.75h0l0,0c.28-.28.54-.56.78-.85s.52-.61.78-1,.51-.7.74-1h0l0-.06a10.58,10.58,0,0,0,.76-1.42h0a10.57,10.57,0,0,0,.56-1.67,13.33,13.33,0,0,0,.28-1.43c.06-.44.09-.89.11-1.36h0a11.4,11.4,0,0,0-.06-1.64h0a13.7,13.7,0,0,0-.24-1.45c-.09-.38-.19-.77-.31-1.15s-.25-.77-.4-1.2-.33-.84-.5-1.24-.33-.75-.48-1.07-.33-.66-.51-1-.38-.7-.61-1.08-.45-.74-.68-1.09h0v0c-.25-.37-.51-.74-.79-1.1s-.54-.68-.79-1l0,0h0c-.24-.28-.51-.56-.79-.85h0c-.27-.27-.55-.54-.83-.79s-.58-.51-.87-.75l0,0c-.31-.24-.64-.49-1-.74h0l0,0c-.37-.25-.73-.49-1.09-.7h0c-.38-.22-.79-.43-1.22-.63a11.13,11.13,0,0,0-1.4-.54,12.3,12.3,0,0,0-1.4-.33,6.5,6.5,0,0,0-1-.08h-.47a5.7,5.7,0,0,0-.58.06h0a6.93,6.93,0,0,0-2.08.62l-.92.44h0l-1,.45-1.08.49-1.07.47-1,.46-1,.45-1,.46-1,.46h0l-.95.46-.95.46-.89.43L171,79l-1.13.57-1,.52-1,.48-1.14.55-1.18.56-1.12.53-1.13.52h0c-.39.18-.76.35-1.12.5l-1,.44-.93.4-1,.43-1,.42-.9.37-1.08.41h0l-1.26.48h0l-1.16.45-1.07.41h0l-1.21.47-1.14.43h0l-1.13.42-1.23.46-1,.38h0l-1.08.37-1.09.37-1,.32-1.16.35h0l-1.29.4-1.33.39-1.36.41-1.24.36h0l-1.24.35h0l-1.3.37-1.4.38-1.28.34h0L131,94l-1.3.34h0l-1.36.36-1.64.43-1.68.44-1.7.46h0l-1.59.43-1.47.39-1.38.37h0l-1.31.34-1.71.43c-.72.18-1.34.33-1.85.47h0l-1.51.41-1.23.33-1.2.31h0l-1.36.34h0l-1.17.29-1.15.28-1.08.27-1.43.36-1.41.35h0l-.33-2.89a3.24,3.24,0,0,0-3.15-2.74h0l-1,.11h0q-.5-16.27,0-22.44.38-10.59,2.36-27.21,1.13-8.76,4.32-23.24c.83-3,1.6-5.53,2.3-7.6s2-5.4,4-10.35a5.41,5.41,0,0,0,.33-1.36q.16-3-3.73-3.65h-.07Z"/><path class="cls-11" d="M119,300.77a5.76,5.76,0,0,0-2.18.52,6,6,0,0,0-2,1.51,4.08,4.08,0,0,0-.75,4.08,4.76,4.76,0,0,0,3.08,2.33,12.53,12.53,0,0,0,2.8.49,28.07,28.07,0,0,0,3.06,0,19.74,19.74,0,0,0,4.14-.56,8.71,8.71,0,0,0,2.69-1.16q1.75-1.41.67-3.94a6,6,0,0,0-3.76-3.33,5,5,0,0,0-4.3.78,6.84,6.84,0,0,0-3.48-.75"/><path class="cls-12" d="M142.4,199.64c-.16.42-.29.8-.39,1.13l.39-1.13"/><path class="cls-13" d="M133,222a21.2,21.2,0,0,1-1,3.27,3,3,0,0,1-.34.5,8.71,8.71,0,0,1-.66.7,1.16,1.16,0,0,0-.16.21l-.21.37s-.16.33-.4.88a1.59,1.59,0,0,1-.13.22,4.58,4.58,0,0,1-.69.74c-.83.66-1.37,1.1-1.61,1.32l-2,1.83-.57.48.14.09a17.85,17.85,0,0,0,3.16-.51l.79-.25.13-.05a2.08,2.08,0,0,0,.43-.45,14.32,14.32,0,0,0,1-1.8,9.61,9.61,0,0,1,1-1.08,2,2,0,0,0,.26-.35,6.42,6.42,0,0,0,.61-1.37,27.73,27.73,0,0,0,.76-3.42,1.38,1.38,0,0,0-.13-.51A5.42,5.42,0,0,0,133,222"/><path class="cls-13" d="M100.36,210.42l-2.31.43.27.47,1.56,2.24a22.7,22.7,0,0,0,1.94,3,3.6,3.6,0,0,0,.8.72c1.83.79,2.81,1.33,3,1.64l2.59,3.36a8.35,8.35,0,0,1,.94,1.61,2.67,2.67,0,0,1,.26,1c-.06,1.27-.08,2.49-.07,3.65l-.11,2.67c.07-.05.51-1.47,1.33-4.26.18-.6.32-1.15.44-1.66a2.73,2.73,0,0,0,0-2,30.62,30.62,0,0,0-2.75-4.59,7.93,7.93,0,0,0-1.74-1.56,17.35,17.35,0,0,0-2.49-1.37,1.66,1.66,0,0,1-.43-.34,11.56,11.56,0,0,1-1-1.49l-2.15-3.55"/><path class="cls-13" d="M135.28,204.84l-.16.17.16-.17"/><path class="cls-13" d="M136.35,204.75l-1.13-.13a15.25,15.25,0,0,1-2.44,2.6c-.23.22-1.49,1.11-3.75,2.67-.84.55-1.38.88-1.63,1,0,0,0,0-.05.06V211l.26,1c0,.06.06.09.11.08a32.11,32.11,0,0,0,3.67-2.11,24.93,24.93,0,0,0,3.08-2.61,9.58,9.58,0,0,0,1.89-2.61"/><path class="cls-14" d="M142.91,202.73l-.24.59s.59.29,1.75.83l1.28.49.34.15a5,5,0,0,1,1,.62,7.49,7.49,0,0,1,.87.91s.36.49,1,1.47a.12.12,0,0,0,.07.07,8.87,8.87,0,0,0-1-2.31,4.26,4.26,0,0,0-1-1.31,4.78,4.78,0,0,0-1.61-.86,19.35,19.35,0,0,0-2.46-.65"/></g></g></svg>