<?xml version="1.0" encoding="utf-8"?>
<!-- Generator: Adobe Illustrator 24.0.0, SVG Export Plug-In . SVG Version: 6.00 Build 0)  -->
<svg version="1.1" id="Calque_1" xmlns="http://www.w3.org/2000/svg" xmlns:xlink="http://www.w3.org/1999/xlink" x="0px" y="0px"
	 viewBox="0 0 520 520" style="enable-background:new 0 0 520 520;" xml:space="preserve">
<style type="text/css">
	.st0{fill:#E2E2E2;}
	.st1{fill:#4BBD4E;}
	.st2{fill:#FFFFFF;}
	.st3{fill:#C2C2C2;}
	.st4{fill:#3FA042;}
	.st5{fill:#FFFFFF;fill-opacity:0.3412;}
	.st6{fill:#3D3E40;}
	.st7{fill:#F2829A;}
	.st8{fill:#FFA1A2;}
</style>
<circle class="st0" cx="260" cy="260" r="259.8"/>
<g>
	<g>
		<path class="st0" d="M277.2,129.4c-6.6,0-13.8,1.2-21.7,3.6h0c-16.9,0.2-33.4,6.2-49.7,17.8c-3.5,2.7-7.5,6.7-12.2,11.9
			c-13.8,18.3-21.3,27.6-22.7,27.9c-2.8,3.1-12.8,10.6-30.1,22.7c-5.3,4.3-9.9,8.5-13.7,12.6c-9.4,9.5-17.3,20.3-23.5,32.5
			c-16.6,31-22.1,56.2-16.4,75.9c2,9.4,7.8,19.2,17.5,29.5c4.7,5.3,12.7,9.7,24,13.2c14.1,4,25.4,6.1,34,6.4l79.2,3.3l4.5,0l0,0
			l-2.2,3.6l-0.1,0.1c12.9,2.2,27.1,3.4,42.4,3.4c4.9,0,10-0.1,15.2-0.3c15.9-1,39.9-5.1,72.1-12.5c31.8-8.9,53.9-23.3,66.3-43.1
			c5.5-8.6,8.9-19.2,10.1-31.9c2-19.8,0.9-33.5-3.2-41.1c-2.5-5.7-6.1-11.1-10.8-16.4c-0.4-1.1-5.5-5.4-15.2-13
			c-1.7-1.5-3.2-3-4.6-4.7c-0.8-0.4-4.3-6.3-10.6-17.6l-3-3.7h0c-3.6-11.1-8.2-19-14-23.9c-3.5-2.9-7-5.3-10.5-7.2
			c-1-0.7-10.2-5.1-27.8-13.5c-3.7-1.8-7.2-3.8-10.8-5.9c-4.5-2.6-11.9-8.6-22.1-17.9c-2.1-1.6-4-2.9-5.7-3.7
			c-9.9-5.1-20.3-7.7-31-7.7c-0.1,0-0.2,0-0.3,0C279.6,129.5,278.4,129.4,277.2,129.4z"/>
	</g>
	<g>
		<path class="st1" d="M464.9,230.7c-8.5,2.2-16.4,7.1-23.8,14.6l11.5,16.8c0.4-0.7,0.9-1.6,1.3-2.6l5.9-13.3
			c0.5-1.2,1.6-3.4,3.3-6.7c0.4-0.8,0.7-1.5,1-2.3C465.2,234.4,465.5,232.2,464.9,230.7"/>
	</g>
	<g>
		<path class="st1" d="M470.6,184.3l-5.2,5.4l-24.8,24.5l-18.2,19.3l20.2,12.8c4.6-4.9,6.9-7.5,6.9-7.9c1.1-1.9,4.3-8.2,9.6-18.8
			c3.6-6.5,5.4-10,5.5-10.3C468.4,200,470.4,191.7,470.6,184.3"/>
	</g>
	<g>
		<path class="st1" d="M445.5,180.9c-3.2,0.1-7.3,2.7-12.4,7.7c-5,5.7-9.1,11.7-12.5,18c-3,6.1-4.9,12.5-6,19.1
			c-0.4,2.9-0.5,4.9-0.4,5.9c0.1,0.7,1,1.7,2.6,2.9c3.8,2.4,8.1,3.6,13,3.4l15.6-23.9c-0.9-2.8-1.3-6.2-1.3-10.3
			c0-1.8,0.1-4.1,0.2-7c0-0.6,0.3-3.7,0.8-9.4c0.2-3.6,0.3-5.6,0.3-6.2C445.6,181,445.5,181,445.5,180.9"/>
	</g>
	<g>
		<path class="st1" d="M61.4,285.6c-0.3,0.2-0.2,0.9,0.2,2.1c0.3,1.2,0.9,2.7,1.6,4.3c0.1,0.4,2.3,4.6,6.6,12.4l3.6,7.6
			c0.4,0.9,0.8,1.6,1,2c1.2,2,2.4,3.8,3.6,5.2c1.6,1.7,3.6,3.6,5.9,5.6l3.3-27.8c-6.8-4-10.9-6.2-12.4-6.8
			C68.4,287.7,63.9,286.1,61.4,285.6"/>
	</g>
	<g>
		<path class="st1" d="M50.9,238.7c-0.3,1.9,0.3,5.1,2,9.8c0.4,1.6,3.8,8.2,10.1,19.8c7.5,13.6,14.8,24.1,21.6,31.5l10.9-27
			c-8.2-4.8-16.1-10.2-23.6-16.2c-2.5-1.9-5.5-4.4-9.1-7.3C57,243.9,53.1,240.3,50.9,238.7"/>
	</g>
	<g>
		<path class="st1" d="M77.4,230.7c1.4,2.8,2.2,4.7,2.4,5.7c0.5,1.4,0.9,3.4,1.4,5.8c0.3,1.3,0.5,3.1,0.8,5.1
			c0.2,1.1,0.6,5.4,1.4,12.9c0.4,3.6,0.8,6.5,1.2,8.7l11.3,6.9c3.5-6.3,5.9-11,7-14.1c1.1-3,1.5-5.3,1-6.9c-0.3-0.6-1.2-1.8-2.9-3.6
			l-4.6-4.5c-4.6-4.9-7.8-8.2-9.7-9.8C83.6,233.9,80.5,231.9,77.4,230.7"/>
	</g>
	<g>
		<path class="st2" d="M313.8,157c-2.9-3.4-8-6.7-15.3-9.7c-8.8-3.4-16.4-5.1-22.9-5.1c-4.9,0.1-8.4,1.6-10.3,4.5
			c-2.1,4-2,7.7,0.5,11.1c1.4,1.7,3.6,3.1,6.5,4c1.1,0.3,2.4,0.6,4,0.8c1.3,0.2,3.6,0.4,6.9,0.7l0.8,0.2c1.7,0.4,4.8,1.3,9.1,2.6
			c1,0.3,3.3,1.2,6.9,2.8c0.6,0.3,1.2,0.4,1.7,0.6c1.6,0.5,3.2,0.7,4.7,0.6c4.6-0.2,7.7-1.7,9.1-4.4
			C316.8,163.1,316.2,160.2,313.8,157"/>
	</g>
	<g>
		<path class="st2" d="M342.4,179.6c-0.7-2.9-2.3-5.1-4.7-6.6c-3.3-1.8-7-2.8-11.3-3c-2.5,0.1-4.4,0.9-5.7,2.5
			c-0.7,0.8-1.3,2-1.7,3.5c-0.3,0.9-0.4,1.9-0.3,3c0.5,1.7,1.2,3.2,2.1,4.6c1.3,2,2.5,3.4,3.4,4.2c2,1.5,4.6,2.4,7.7,2.6
			c3.7,0.1,6.3-0.6,7.8-2.2c1.1-1.3,1.9-2.7,2.4-4.3C342.5,182.6,342.6,181.2,342.4,179.6"/>
	</g>
	<g>
		<path class="st2" d="M280.4,123l-3.2,0.9c-2.8,0.8-1.8,0.5,3.1-0.9 M275.6,124.4l-55.4,15.8l-2.6,1.8c-4.5,3.2-9.6,7.9-15.3,14
			c-14.3,15-26.7,28.9-37.3,41.6l-5.1,4.7c-12.7,9.7-21.6,16.9-26.6,21.7c-6.9,6.2-13,12.6-18.3,19.2
			c-13.8,15.9-23.2,34.9-28.3,57.1c-2.3,11.5,1.8,26.3,12.3,44.2c-3.6-6.7-2.3-20.8,4-42.4c3-9.7,13-26.5,29.8-50.6
			c6.6-8.1,11.6-13.8,15-16.9c15.3-13.9,27.5-24.6,36.8-32.1l6.7-6.6c2.2-2.4,4-4.7,5.4-6.9c7.8-13.3,12.4-20.7,13.8-22.2
			c4.4-5.8,8.6-10.5,12.6-14c14.8-13.2,32.2-22.5,52.2-28.2 M99,344.5c0.6,1.6,1.3,3.2,2.2,4.8C107.2,359.3,106.5,357.7,99,344.5"/>
	</g>
	<g>
		<path class="st3" d="M405.2,227.6l3.6,2.8C407.4,229.3,406.2,228.4,405.2,227.6"/>
	</g>
	<g>
		<path class="st3" d="M410.5,236.4c17,11.1,25.5,25.2,25.5,42.4c0.2,21.5-7.8,40.2-23.9,56.2c-14.8,15-37,28-66.6,38.8
			c-6.5,2.7-18.5,5.6-36,8.7c-21.2,3.8-38.7,5.8-52.5,6c6.2,1,28.4,0.4,66.5-1.6c11.8-0.7,26.1-2.8,42.6-6.3
			c12.2-2.8,25.6-7.2,40.3-13.3c7.7-3.5,15.1-8.7,22.2-15.5c18.8-18.8,25.5-44.5,20.2-77c-1.6-9.6-4.2-17.5-7.8-23.9l-30.4-14.5"/>
	</g>
	<g>
		<path class="st4" d="M463.7,231.7c-1,1.5-3.3,5.6-6.9,12.2l-1.4,2.7l-2.9,5.7l-2.3,4.4c-0.3,0.5-0.3,1.7,0.1,3.5
			c0.2,1.1,0.5,2.1,0.9,3c0,0.1,0.2,0.1,0.4-0.1c2-1.7,3.8-4.3,5.4-7.7c0.6-1.3,1.3-2.9,2-4.8l2.6-7.5l0.8-2.1
			c0.9-2,1.6-3.5,2.3-4.6L463.7,231.7"/>
	</g>
	<g>
		<path class="st4" d="M470.8,184.1c-1,1.6-3.6,6.4-7.7,14.2l-5.5,11.1c-0.5,1-2.4,4.2-5.7,9.7c-7.3,11.4-12.9,19.3-16.8,23.9
			c-0.3,1.4-0.2,2.6,0.2,3.5c1.3,0.1,2.9-0.3,4.9-1.3c2.1-1.2,3.9-2.5,5.5-4.1c3.6-3.4,6.1-6,7.3-8L470.8,184.1"/>
	</g>
	<g>
		<path class="st4" d="M443.1,180.5c-1.1,3.7-1.9,6.8-2.6,9.2c-2,8.2-3,12.1-3,11.8c-1,3.5-1.9,6.6-2.9,9.2c-1.4,4-2.9,7.3-4.2,9.9
			c-0.7,1.4-2.4,4.3-5.1,8.7c-0.1,0.2,0.1,0.2,0.6-0.1c0.8-0.5,1.7-1.1,2.8-2c1.3-1,2.5-2.1,3.7-3.3c2.9-2.8,6.3-6.9,10.3-12.4
			L443.1,180.5"/>
	</g>
	<g>
		<path class="st4" d="M83.7,313.4c-1.6-1.8-3.3-3.9-5-6.4l-9.8-14.5l-1.9-2.8c-2.2-3-3.2-4.2-3.2-3.8c-0.2,0.6,0,2.6,0.6,6.2
			c0.5,2.2,1.2,4.4,2.1,6.4c2.7,5.9,6.5,12.4,11.3,19.4l1.8,2.3L83.7,313.4"/>
	</g>
	<g>
		<path class="st4" d="M86.3,291.6c-2.9-3-5.6-6.5-8.3-10.5c-3.6-6.1-8.4-14-14.4-23.5L54.4,242l-1.6-2.6c-0.1-0.2-0.2-0.3-0.4-0.3
			c-0.6,1.3-0.8,3.1-0.5,5.4c0.5,3.6,1.2,6.1,2.1,7.6c0.7,1.4,1.3,2.6,1.8,3.4l8.7,13.5l11.4,19.4c0.8,1.5,2.3,2.8,4.6,4L86.3,291.6
			"/>
	</g>
	<g>
		<path class="st4" d="M94.2,272.2c-1.6-3.4-3.1-6.9-4.4-10.3c-0.5-1.2-0.9-2.5-1.4-3.8c-4.3-12.7-6.4-19-6.5-18.9
			c-1-2.8-2-5.4-3-7.7c-0.4,0.7-0.6,2-0.7,4c-0.1,1.7,0,3.6,0.4,5.9c0,0.7,1.1,5.4,3.3,14c1.2,4.8,2.1,8.1,2.8,9.9L94.2,272.2"/>
	</g>
	<g>
		<path class="st5" d="M101.6,256.1c0.6-2.7-1.6-6.8-6.6-12.2c-3.4-3.6-6.5-6.6-9.5-9c-1.8-1.4-4.1-2.5-6.9-3.3l-0.1,4
			c5.3,4,9.9,7.9,13.7,11.7c1.5,1.5,3,3.2,4.7,5.2c1,1.3,2,2.9,3,4.8c0.1,0.2,0.5,0,1.1-0.4C101.3,256.6,101.5,256.4,101.6,256.1"/>
	</g>
	<g>
		<path class="st5" d="M91.9,278.7l-2-7.7l-27.2-20.3l-11.8-9.2c-0.9-0.6-1.1-0.8-0.8-0.4c2.2,2.6,4.5,5.2,6.9,7.8
			c4.9,5.2,9.3,9.5,13.3,13.2C75.1,266.5,82.3,272,91.9,278.7"/>
	</g>
	<g>
		<path class="st5" d="M83.7,299.7l-0.1-3.4l-4.8-2c-1-0.4-1.8-0.7-2.6-1c-1.9-0.7-3.7-1.4-5.4-1.9c-2.3-0.7-4.2-1.1-5.7-1.3
			c-0.1,0-0.1,0,0,0.1l0.9,0.7c0.7,0.5,1.3,1,1.9,1.3c2,1.3,4.4,2.5,7.1,3.8C78.6,297.7,81.5,298.9,83.7,299.7"/>
	</g>
	<g>
		<path class="st5" d="M444.1,180.1l-6.9,4.6c-1.8,1.5-3.5,3.3-5.3,5.4c-5.2,6.5-9.6,13.1-13.2,19.9c-2.3,4.5-3.4,8.4-3.4,11.9
			c0,1.6,0.4,3.1,1,4.6c1,1.9,1.9,3,2.6,3.1c0.4-2.2,0.8-3.9,1.2-5.2l4.7-13.5c1.3-3.8,2.7-7.1,4.2-9.9c1.3-2.6,3-5.3,5-8.2
			L444.1,180.1"/>
	</g>
	<g>
		<path class="st5" d="M471.8,186.4l-12.2,11.4L440.1,214c-3,2.6-5.3,4.8-6.8,6.4c-2.8,3-4.9,6.1-6.2,9.3c-0.4,1.4-0.5,2.6-0.3,3.6
			c0.4,2.1,0.9,3.2,1.4,3.2l30.4-35.7C465.5,192.9,469.9,188.1,471.8,186.4"/>
	</g>
	<g>
		<path class="st5" d="M466,231.7l-10.8,4.4c-1.3,0.4-2.5,0.9-3.6,1.4c-1.6,0.8-3.5,2-5.5,3.6c-1,0.9-1.8,1.9-2.5,3
			c-0.4,0.7-0.7,1.6-0.9,2.8c-0.1,0.1,0,0.4,0.1,0.7c0.2,0.3,0.6,0.9,1.1,1.7c0.5,0.7,0.8,0.9,1,0.8c0.1,0,0.2-0.1,0.3-0.2
			c2.4-3,4.2-5.2,5.7-6.7c1.8-2,3.5-3.6,5-4.9C459.3,235.3,462.6,233.2,466,231.7"/>
	</g>
	<g>
		<path class="st6" d="M275.2,134c10.4,0,20.5,1.5,30.4,4.5l0.6,0.3c5.4,2.3,9.8,4.8,13.4,7.5c17.9,15.3,28.4,23.5,31.6,24.7
			c-1.4,0.2,7.9,4.1,27.8,11.6c3.9,1.8,7.2,3.9,10.1,6.3c3,2.7,5.8,6.6,8.4,11.9c6.3,20.6,10.9,32.4,13.7,35.4
			c1.1,1.6,2.6,2.9,4.5,4.2c7.2,3.3,12.8,6.4,16.9,9.4c3.2,2.4,5.6,4.8,7.1,7.4c5.1,7.3,7.4,22,7,44.2c-1.5,18.6-6.3,32.4-14.2,41.5
			c-8.7,11-25.4,20.7-49.9,29.1c-24.6,6.6-47.7,10.8-69.2,12.3c-2.7,0.3-7.8,0.6-15.1,0.8h0c-0.1,0-0.1,0-0.2,0l-3.7,0.3
			c-1.8,0.1-3.3,0.2-4.4,0.3c-1.8,0-3.6,0.1-5.4,0.2L283,386c-1,0.1-1.7,0.1-2,0.1c-0.6,0-1.3,0.1-2.1,0.1h0c-1,0.3-2.4,0.4-4.4,0.4
			c-0.8,0-1.7,0-2.6-0.1c-0.7,0-1.5,0-2.2,0c-11.8,0-25.3-0.5-40.4-1.5l-73.6-7.5c-15.1-2.2-26.7-4.9-35-8.2
			c-5.7-2.2-9.9-4.6-12.6-7.4c-1.2-0.9-4.6-6.2-10-15.9c-5.6-10.7-8.1-22.2-7.5-34.5c-0.1-9.1,4.6-23.5,14-43
			c2.8-6.7,10.3-18.3,22.6-34.8c3.4-4.3,8.1-9,14.2-14.2l40.3-32c0.9,0,7-7.7,18.1-23.2c2.3-2.8,4.7-5.3,7.2-7.6
			c4.2-3.8,9.9-7.6,17.1-11.6C241.8,137.8,258.8,134,275.2,134z M275.1,386.8l1.2,0h0l0,0c-0.1,0-0.1,0-0.2,0c-0.1,0-0.1,0-0.2,0
			c0,0,0,0-0.1,0c-0.1,0-0.2,0-0.2,0C275.5,386.8,275.3,386.8,275.1,386.8L275.1,386.8z M274.4,123.7c-17.8,0-35.9,4-54.3,11.9
			c-8.4,4.5-15.1,9-20.3,13.6c-2.3,1.1-10.7,11.3-25.3,30.8l-40.8,32.4c-6.9,6-12.1,11.4-15.6,16.1c-12.6,16.9-20.5,29.3-23.6,37.2
			c-9.7,19.8-14.5,35.6-14.4,47.4c-0.3,14.4,2.8,27.4,9.3,39c6.3,14.2,15.1,23,26.4,26.6c8.4,3.5,20.7,6.5,36.8,9
			c0,0.5,25.3,3.1,75.9,7.8c12.6,1,25.3,1.6,38.1,1.6c16.8,0,33.9-0.9,51.2-2.7c39.8-5.1,63.4-9.6,71-13.6
			c24.8-8.5,42.3-19.3,52.5-32.4c8.7-10.3,13.9-25.7,15.7-46.2c0.6-23.8-2.1-40.5-8.2-50c-3.3-6.9-13-14.2-29.1-22
			c-1.9-1.3-6.3-12.8-13.1-34.4c-3.2-6.2-6.7-11.1-10.6-14.6c-3.5-3-7.6-5.6-12.2-7.8l-27.2-11.3c-2.3-0.7-12.8-8.9-31.5-24.7
			c-4-2.9-8.8-5.6-14.6-8.1l-0.3-0.1C298.4,125.5,286.5,123.7,274.4,123.7z"/>
	</g>
	<g>
		<path class="st6" d="M57.8,281.6c-0.3,0-0.4,0-0.6,0.1l0,0c-1.4,1.1-1.8,2.4-1.2,3.9l9,16.6c4.9,8.7,10.1,17.6,15.7,26.8
			c0.3,0.3,0.5,0.6,0.8,0.8h0c0,0,0,0,0,0h0c0.4,0.3,0.9,0.4,1.3,0.4c0.4,0,0.8-0.1,1.2-0.2c1.4-0.9,1.9-2.1,1.3-3.6l-5.1-8.5h0l0,0
			h0l-3.1-5.1L70,300.3l-6.3-11.4h0c2,0.6,7.6,2.9,16.8,6.9c0.5,0.2,1.2,0.5,1.9,0.9l0,0c0,0,0,0,0,0h0c2.2,1.1,5.3,2.8,9.2,5.1
			c0.1,0,0.1,0,0.2,0l0,0c0.4-1.6,0.8-3.3,1.3-5.1h0c-2.1-1.5-5.2-3.2-9.3-5.2c-1.1-0.5-2.3-1.1-3.6-1.7c-0.2-0.1-0.3-0.1-0.5-0.2h0
			l0,0h0c-3.4-1.5-6.4-2.7-9-3.8l0,0C63.8,283.1,59.4,281.6,57.8,281.6z"/>
	</g>
	<g>
		<path class="st6" d="M45.4,230.9c-0.3,0-0.6,0.1-1,0.2l-0.1,0c-1.4,0.7-1.9,1.8-1.6,3.1c0.4,1.3,2.1,4.8,5,10.7
			c8.3,16.8,16,30.4,23.1,41h0c1.9,2.8,3.7,5.4,5.5,7.8c0.5,0.4,1.1,0.6,1.7,0.6c0.5,0,1.1-0.2,1.6-0.5c1-0.8,1.3-1.9,0.9-3.2
			c-0.2-0.3-0.4-0.6-0.6-0.9h0c0,0,0,0,0,0h0c-9-12.6-18-28.1-26.9-46.4h0l16.2,13.5L87,271.9l3.4,2.7h0c0,0,0,0,0,0h0l8.4,6.9
			c0.7-1.7,1.4-3.4,2.2-5.1h0l-8.4-6.8l-1.8-1.4l-4.8-4.1l-6.5-5.6l-7.1-6.1l-25.1-20.8C46.7,231.2,46,230.9,45.4,230.9z"/>
	</g>
	<g>
		<path class="st6" d="M75.2,226.2c-0.2,0-0.4,0-0.5,0.1l0,0c-1.7,0.5-2.5,1.4-2.2,3c1.3,3.9,2.4,8,3.4,12.2l2,8.6l1.7,8.4l1.4,6.8
			c0.1,0.4,0.2,0.7,0.5,1c0.6,0.7,1.3,1.1,2.1,1.1c0.3,0,0.6,0,1-0.1c1.1-0.5,1.7-1.3,1.8-2.6l-0.1-0.5l-3.2-15.9
			c-2-8.5-3.1-13.3-3.5-14.5h0l0.1,0c4.1,2.3,7.4,4.6,9.8,6.8c3.6,3.1,6.9,6.8,10.1,10.9c0.5,0.7,1,1.4,1.5,2.1l0,0c0,0,0,0,0,0h0
			c2.4,3.5,4.4,7,6,10.4c0.9-1.7,2-3.5,3.2-5.5h0c-1.8-3.5-3.9-6.7-6.1-9.8c0,0,0,0,0,0c-4.3-5.7-8.9-10.5-13.8-14.3
			c-3.1-2.3-6.3-4.3-9.5-6C78,226.9,76.2,226.2,75.2,226.2z"/>
	</g>
	<g>
		<path class="st6" d="M335.7,244.4c-0.7,0-1.4,0.2-2,0.5l-7.8,4.4c-6.1,3.4-13.1,7.7-21.1,12.9c-1.3,0.8-2.1,1.4-2.5,1.9l0.9-0.8
			l-0.5,0.3c-0.4,0.3-0.7,0.6-1,1c-0.7,0.8-0.9,1.7-0.9,2.6c0.4,2.4,1.7,4,3.9,4.8c2.7,1.2,8.7,3.2,18.2,6.2l14.8,4.2
			c0.4,0.1,0.8,0.2,1.2,0.2c2.2-0.1,3.6-1.2,4.3-3.2c0.5-2-0.1-3.7-1.8-5.1c-0.4-0.3-0.8-0.4-1.2-0.6c-10.5-2.8-18.8-5.3-24.8-7.4
			c7.1-4.5,14.6-8.9,22.6-13.3c0.3-0.2,0.6-0.4,0.9-0.8c1.3-1.5,1.6-3.2,0.9-4.9C339.1,245.4,337.7,244.5,335.7,244.4"/>
	</g>
	<g>
		<path class="st6" d="M217.7,242.4c-5.6,0.2-10.3,2.8-14.2,7.8c-3.8,5.1-5.6,11.2-5.4,18.1c0.3,7,2.5,13,6.7,17.9
			c4.2,4.8,9.2,7.1,14.7,7.1c5.6-0.2,10.3-2.8,14.2-7.8c3.7-5,5.5-11.1,5.3-18.1c-0.3-7-2.5-13-6.6-17.9
			C228.2,244.7,223.3,242.3,217.7,242.4"/>
	</g>
	<g>
		<path class="st2" d="M225.5,251.7c-1.6,0.1-2.9,1-3.9,2.7c-1,1.8-1.4,3.9-1.2,6.4c0.2,2.5,0.9,4.6,2.2,6.3
			c1.3,1.7,2.7,2.6,4.3,2.5c1.6-0.1,2.9-1,3.9-2.7c1-1.8,1.4-3.9,1.2-6.4c-0.2-2.5-0.9-4.6-2.2-6.3
			C228.5,252.6,227.1,251.7,225.5,251.7"/>
	</g>
	<g>
		<path class="st6" d="M256.7,296.7l-3,0.3c-0.6,0.1-1.1,0.1-1.4,0.2c-1,0.3-1.9,0.8-2.5,1.6c-0.9,1.1-1.5,2.6-1.8,4.5
			c-0.1,0.9-0.1,1.7-0.1,2.5h0c0.9,4.4,3,8.4,6.3,11.8c4.7,4.7,10.4,7.1,16.9,7.2c6.6,0,12.3-2.3,17.1-6.9c3.4-3.5,5.7-7.5,6.6-12h0
			l0.1-1.5c0-0.7,0-1.3,0-1.7c-0.1-1.4-0.4-2.5-1-3.4c-0.5-0.9-1.3-1.5-2.3-1.9c-0.5-0.2-1.1-0.4-1.8-0.5h0l-10.2,0L256.7,296.7z"/>
	</g>
	<g>
		<path class="st7" d="M271.8,308.5c-2.7,0-5,0.5-7.1,1.7c-2,1.2-3,2.7-3.2,4.5c-0.1,1.8,0.8,3.3,2.5,4.7c1.8,1.3,4.1,2,6.8,2.1
			c2.7,0,5-0.5,7.1-1.7c2-1.2,3-2.7,3.2-4.5c0.1-1.8-0.8-3.3-2.5-4.7C276.7,309.3,274.5,308.6,271.8,308.5"/>
	</g>
	<g>
		<path class="st8" d="M195.5,294.3c-5,0.1-9.5,1.5-13.3,4.2c-3.7,2.8-5.8,6.2-6.2,10.2c-0.2,4,1.3,7.4,4.6,10.2
			c3.4,2.8,7.6,4.2,12.7,4.2c5.1-0.1,9.5-1.5,13.3-4.2c3.7-2.8,5.8-6.2,6.2-10.2c0.2-4-1.3-7.4-4.5-10.2
			C204.8,295.8,200.6,294.4,195.5,294.3"/>
	</g>
	<g>
		<path class="st8" d="M344.7,288.1c5-1.2,9.8-0.9,14.3,0.9c4.4,1.9,7.3,4.8,8.7,8.6c1.2,3.9,0.5,7.6-2,11.2
			c-2.7,3.6-6.5,6-11.5,7.3c-5,1.2-9.8,0.9-14.2-0.9c-4.4-1.9-7.3-4.7-8.7-8.6c-1.2-3.9-0.6-7.6,2-11.3
			C335.8,291.9,339.7,289.4,344.7,288.1"/>
	</g>
	<g>
		<path class="st6" d="M469.3,225c-1.2-0.5-8.2,3-20.9,10.4c-6.5,4-10.7,7.2-12.6,9.4c-0.4,1.1-0.2,2,0.6,2.8
			c0.8,0.7,1.7,0.9,2.8,0.5c4.6-3.5,7.9-5.9,9.8-7c8.1-4.9,13.1-7.7,15-8.5l-4.5,11.5l-5.2,12.5l-6.1,13.9c-0.4,1.5,0.2,2.6,1.6,3.2
			c1.3,0.3,2.3-0.1,3-1.3c4.2-9.3,8-18.4,11.6-27.1l6.5-16.7C471.3,227,470.8,225.8,469.3,225"/>
	</g>
	<g>
		<path class="st6" d="M475.4,175.7c-0.9-0.3-1.8,0-2.7,0.9l-21.2,22.6l-15.5,17l-10,10.5c-1.7,1.7-3.5,3.4-5.6,5.2
			c-1.1,1.9-0.7,3.2,1.1,4.1c0.8,0.2,1.5,0.1,2.2-0.3c1.9-1.5,3.9-3.4,6.2-5.8l10.2-10.7l15-16.5l13.7-14.6
			c-6.4,18.7-13.2,34.7-20.4,47.9c-0.3,1.3,0.1,2.3,1.2,2.9c1.2,0.5,2.2,0.4,3.1-0.5c6.7-11.6,13.7-28.1,21.1-49.4
			c2.1-5.9,3.2-9.4,3.5-10.6c0.2-1.3-0.5-2.2-1.9-2.7"/>
	</g>
	<g>
		<path class="st6" d="M446.3,174.8c-0.8-0.2-2.6,0.7-5.4,2.6c-2.8,2-5.6,4.2-8.2,6.8c-4.2,4.2-7.9,9.3-11.3,15.2
			c-3.9,7-6.7,14.9-8.5,23.8c-0.3,1.5-0.6,3.2-0.8,5.1c0,0.7,0,1.7,0.2,3c0.3,1.2,1,2,2.3,2.2c1.3,0,2.2-0.6,2.6-1.7
			c-0.4-2.6,0.4-7.6,2.5-15c1.3-4.8,3.5-9.9,6.4-15.3c2.5-4.2,5.2-8.1,8.2-11.5c2.1-2.4,4.9-5,8.5-7.6l0.1,0
			c-0.2,1.2-0.8,5.9-1.6,14.1l-1.1,15.8c0.2,1.2,0.8,2,2,2.3c1.2,0.2,2.1-0.2,2.8-1.2c0.2-0.3,0.3-0.6,0.3-1l1.1-14.7l0.9-8.4
			c0.4-4.1,1-8.1,1.8-11.9C448.8,175.9,448,175,446.3,174.8"/>
	</g>
</g>
</svg>
