<svg xmlns="http://www.w3.org/2000/svg" viewBox="0 0 360.98 320.2"><defs><style>.cls-1{fill:#a2a2a2;}.cls-2{fill:#dfdfdf;}.cls-3{fill:#e84349;}.cls-4{fill:#e2e2e2;}.cls-5{fill:#fa4a50;}.cls-6{fill:#ffdf4c;}.cls-7{fill:#c8353b;}.cls-14,.cls-8,.cls-9{fill:#3d3e40;}.cls-8{fill-opacity:0.29;}.cls-9{fill-opacity:0.17;}.cls-10,.cls-11,.cls-12,.cls-13{fill:#fff;}.cls-11{fill-opacity:0.42;}.cls-12{fill-opacity:0.29;}.cls-13{fill-opacity:0.34;}</style></defs><title>wheelbarrow</title><g id="Calque_2" data-name="Calque 2"><g id="Calque_1-2" data-name="Calque 1"><path class="cls-1" d="M90,214.44q-18.82.28-32.74,15.09a30.37,30.37,0,0,0-6.43,12.52,98.82,98.82,0,0,0-3.47,22.2q-.69,6.09,4.2,24.88A50.63,50.63,0,0,0,59.85,306q7.68,10.77,28.86,11,19.4-.75,27.89-9.82,13.94-14.29,13.86-31.37-.74-21.84-2.48-29.6a57.67,57.67,0,0,0-7.29-20.48,17.82,17.82,0,0,0-4.66-5q.7,0-8.48-4a59.27,59.27,0,0,0-17.42-2.26"/><path class="cls-2" d="M107.73,238.6c-2.59.06-4.85,2.78-6.79,8.13a70.74,70.74,0,0,0-.3,39.34q2.76,8,6.68,8.17,3.89-.12,6.78-8.16a70.86,70.86,0,0,0,.29-39.34q-2.77-8-6.65-8.14"/><path class="cls-3" d="M261.27,6.42a20.35,20.35,0,0,0-8.39,1.81,36.67,36.67,0,0,0-9.71,6.52A69.31,69.31,0,0,0,235,23.23q-7.89,10.17-15.26,19.28-1.08,1.4-2.37,3.42A48,48,0,0,0,211,62.6l9.42,8.55a66.48,66.48,0,0,1,10.7-17.56q6-7.37,8.07-9.41,18.15-18.43,20.22-20.84a73,73,0,0,0,6.19-7.56,10.91,10.91,0,0,0,1.77-7c-.93-1.29-3-2.08-6.11-2.39Z"/><path class="cls-3" d="M351.13,24.86q-2.2,0-9.06,4.28Q330.51,36,317,45.12A93.82,93.82,0,0,0,299.84,60q-6.07,7.54-10,21.37l12.6,2.6a47.42,47.42,0,0,1,5.41-9.66q6-8.3,9.77-11.46A113.82,113.82,0,0,1,328,54.29c1.63-1.2,3.83-2.74,6.6-4.6Q347,41.86,348,41a29.64,29.64,0,0,0,5.34-4.73q2.81-3.56,2.12-5.51c-.89-3.13-2.29-5.09-4.19-5.9Z"/><path class="cls-3" d="M306.73,89.37a74.53,74.53,0,0,0-16.46,5.78q-19.39,9.33-78.56,36-16,8.45-31.17,18.41a13.49,13.49,0,0,0-3.16,2.76q-23-3.8-47.89-5.71l-54.18-4q-24.57-.76-26.07-1.06h0s0,0-.1,0q-1.65,0-30.84-3L6,138l-.35,0c-.65,0-1,.39-1.15,1.17l1.31,6.55q1.34,7,6.76,17.47h0l1.37-3.24,0,.08,4.29,13.27h0q4.37,7.25,10.2,15.75,6.73,10,23.28,24.39,8.4,6.33,13.86,7.57l.49,0a17.52,17.52,0,0,0,3.11-.38l18-4a40.71,40.71,0,0,1,5.7-.72c.65-.06,1.33-.1,2-.1q5.85,0,13.86,3.14a36,36,0,0,1,13.92,9.31,32.06,32.06,0,0,1,7.8,16.09,2.41,2.41,0,0,0,2.36,1.11h.6a29.38,29.38,0,0,1-8.62,6.62q-2.66,1.39-10.74,3.06a8.09,8.09,0,0,0-1.91.93,20.83,20.83,0,0,0-5.58,5.67q-5.28,7.59,2.39,11.43a19.55,19.55,0,0,0,8.6,1.78,42.23,42.23,0,0,0,12.8-2.32q11.53-3.78,17.6-12.93a87.27,87.27,0,0,0,5-8.55c1.09-2.1,2.17-4.47,3.22-7.11q1.7-4.47,2.84-7.56h0a61.28,61.28,0,0,0,4.93-4l.06,0h0q3.58.56,7.56,1.13a132.73,132.73,0,0,0,15.58.84q24.65-.54,35.67-4.25c.27-.13.54-.27.79-.41h0c.57,0,1.14.06,1.72.06a36.73,36.73,0,0,0,15.32-3.72l0,0h0a13.64,13.64,0,0,0-.06,8.29Q242,239,246.8,247.79q.66,1.44,7.34,12.53l5.17,9.13a23.91,23.91,0,0,0,1.72,2.6,9.81,9.81,0,0,0,5.15,3.75l.7,0a8.49,8.49,0,0,0,5.44-1.8q3.6-4.45,1-15.12-1.6-6.69-7.32-15.75l-1.91-2.86-15.26-19.71h0a51,51,0,0,0,5.19-5.35,104.46,104.46,0,0,0,15-22.58q18.31-38,26.53-60.26,2.83-7.33,7.83-27,1.47-5.42,3.27-15.81l0-.21Z"/><path class="cls-3" d="M165.26,233.8a260.8,260.8,0,0,0,12.88,23.69l2.62,4.24,6,9.25,3.71,6.13a3.37,3.37,0,0,0,2.28,1.72h.48a8.78,8.78,0,0,0,5.62-1.76c1-.64,1.81-2.34,2.28-5.08q1.32-7.8-4.27-17.14-1.8-2.88-6-8.94l-5.14-8.42-20.4-3.69Z"/><path class="cls-4" d="M164,122.19a48.82,48.82,0,0,0-16.52-5.44,31.79,31.79,0,0,0-4.11-.21c-1.74,0-4,.16-6.71.37h-2c-.61,0-1.85-.19-3.7-.46l-6.27-1.06a25.15,25.15,0,0,0-3-.24,29.24,29.24,0,0,0-8,.83q-12.28,3.49-18.26,9.32a124.78,124.78,0,0,0-14.06,15.94c-.59.75-.78,1.12-.58,1.11a4.3,4.3,0,0,0,1.61,1.36q5.09,2.5,17.09,3.45,5.54.43,10.44.64,7.09.31,24.32.82,18.1,1,25.35,1.16l6.34-1.91q6.15-8.35,7.89-15.91-.42-4.61-9.77-9.74"/><path class="cls-4" d="M191.93,75.51a89.36,89.36,0,0,0-15.18-7.57,43,43,0,0,0-13.5-2.3A76.39,76.39,0,0,0,130.3,75a65.33,65.33,0,0,0-9,6.17Q118,83.78,115,86.69c-.88.71-1.33,1.3-1.35,1.79-.13.29.12,1.27.77,2.92l4.6,9.52,3.14,8.12a8.15,8.15,0,0,0,3.61,3.67,28.55,28.55,0,0,0,8.59,3.38l44.06,10.58q6.13-11.3,13.16-16a51.81,51.81,0,0,1,10.73-5.51,71.57,71.57,0,0,1,12.21-3.43c.42-.16.62-.29.6-.41a35.6,35.6,0,0,0-8.57-14,71.76,71.76,0,0,0-14.57-11.83"/><path class="cls-4" d="M113.45,94.79q-14.17-8.39-29.08,0l-2.89,1.72q-7.47,5.31-9.19,6.26-.26.32-8.93,4.6l-3.77,2.24a27.2,27.2,0,0,0-5.13,4.14,62.11,62.11,0,0,0-9.88,12.86,49.55,49.55,0,0,0-3.46,7.9c-.1.31.17.67.83,1.08q6.38,3.82,18.22,5.95a111.89,111.89,0,0,0,12.76.8A151.35,151.35,0,0,0,88.14,142l39.47-24.21a33.75,33.75,0,0,0-5.13-13.6q-4.28-6.68-9-9.4"/><path class="cls-4" d="M250.38,101.61a24.27,24.27,0,0,0-17.79-4.56,21.16,21.16,0,0,0-5.18,1.42c-.25,0-2.67,1.11-7.29,3.34-1.3.54-2.44,1-3.43,1.27a34,34,0,0,1-3.52.9q-12.63,1.86-12.81,2.22a37.43,37.43,0,0,0-9.39,3.91,47.32,47.32,0,0,0-7.76,5.52q-2.75,2.41-7.31,9.27a81.33,81.33,0,0,0-7.46,13.43,63.17,63.17,0,0,0-3,7.84c-.6,1.52-.61,2.32,0,2.41q3.48,2.58,10.2.41Q208,136.8,230.7,126.67l26.61-18.6a48.92,48.92,0,0,0-6.92-6.45"/><path class="cls-4" d="M224.73,74.65Q221,71.52,211.05,67a56.29,56.29,0,0,0-13.3-5,32.86,32.86,0,0,0-10.21-.62A23.94,23.94,0,0,0,179.4,64a34.28,34.28,0,0,0-9.08,6.59,4.62,4.62,0,0,0-1.76,4.72q1.86,8.91,15.48,20.26a99,99,0,0,0,10,7q2.33,1.55,14,7.53l23.25-.59q4.07-13.35,2.59-19.07-2.49-10.65-9.06-15.77"/><path class="cls-4" d="M277.46,85.12a27.2,27.2,0,0,0-9-6.13c-.85-.38-1.85-.78-3-1.21l-11-4a29.82,29.82,0,0,0-6.85-1.69,26.17,26.17,0,0,0-10.34,1.28,89.58,89.58,0,0,0-14.5,6.45l31.4,28.88c1.68-.41,4-1.09,7-2.06q8.94-3.24,13.29-4.64,7.86-2.74,9.21-3.71.94-.37-1.55-6.31a24.52,24.52,0,0,0-4.61-6.76"/><path class="cls-5" d="M298.88,84.13A27.66,27.66,0,0,0,293,82.34a61.74,61.74,0,0,0-6.23-1L280,83.14a40.64,40.64,0,0,1,4.44,6.11,31.46,31.46,0,0,1,2.59,6.84,1,1,0,0,0,.46.55,2.19,2.19,0,0,0,1.6-.08,25.37,25.37,0,0,0,4.17-1.6c1.94-1,4-2.21,6.12-3.59a37.36,37.36,0,0,0,3.81-2.69c.48-.39.32-1-.47-1.73a11.61,11.61,0,0,0-3.86-2.82"/><path class="cls-5" d="M42.51,123.51q-3.06.93-9.29,3.36-10.72,4.4-13.26,5.3a.23.23,0,0,0-.15.28q1.85,2.9,6.35,3.81,1.86.38,5.44.79.51.06,5.7.35l3.19.27a30.54,30.54,0,0,0,4.75-.14l-2.72-14"/><path class="cls-6" d="M304.28,107.51,176.82,170.38l6.3,16.78,118.29-58.07,3-21.22Z"/><path class="cls-6" d="M8.78,156.53Q13,169,14,160.36l3.88,12.84,164.74,13.69-5.26-16.07L9.7,156.63Z"/><path class="cls-7" d="M161.29,214.43q-2.31,6.19-7.48,18.11-1,2.4-5.63,11.52-5.27,10-9.16,13.61A32.87,32.87,0,0,1,126.5,265a47.33,47.33,0,0,1-7.71,1.82,71.76,71.76,0,0,1-11.64.92c-.16,0-.25.07-.27.25a14.35,14.35,0,0,0,6.7,3.91q2.92.79,9.77,0a28.75,28.75,0,0,0,18.19-8.48A43.07,43.07,0,0,0,149,252.81q1-1.35,11.76-25.72c.81-2,1.61-4.24,2.4-6.79l-1.86-5.79"/><path class="cls-7" d="M354,30.54l-5.65,3.9-25.73,17a78.12,78.12,0,0,0-8.15,6.5,48.21,48.21,0,0,0-7.88,9A68.9,68.9,0,0,0,299,80.07q-.27,1,3.16-.95a46.66,46.66,0,0,0,6-4.15c1.64-1.31,3.22-2.65,4.72-4l10.56-10q1.67-1.51,7.21-6.25,3.25-2.85,21.46-16.77L354,30.59"/><path class="cls-7" d="M264.53,8.43q-6.9,7.89-31.85,32.4a84.2,84.2,0,0,0-6.7,7.71q-5.65,7.55-6,20.05c.17.21.89-.53,2.14-2.22l14.2-19.67c1-1.41,2.21-2.94,3.59-4.59q2.56-3.54,16.79-18.15a52.66,52.66,0,0,0,3.62-4.41,43,43,0,0,0,4.24-7l-.05-4.12"/><path class="cls-6" d="M256.6,236.78a15.09,15.09,0,0,1-5.45,4.5,10.89,10.89,0,0,1-6.25.63l8.43,15.79a10.69,10.69,0,0,0,6.66-2.15c2.15-1.51,3.36-3.15,3.63-4.9a2.66,2.66,0,0,0-.09-1.28,65.11,65.11,0,0,0-2.66-6.26,22,22,0,0,0-4.24-6.33"/><path class="cls-6" d="M185.93,244.94a10.47,10.47,0,0,1-4.76,1.82,13.84,13.84,0,0,1-5.88-.51l6.61,15.2a11.12,11.12,0,0,0,2.87.41,9.16,9.16,0,0,0,5-1.31c2-1.4,3.18-2.67,3.43-3.79a1.75,1.75,0,0,0-.1-.62c-.33-.87-.77-2-1.33-3.31a33.46,33.46,0,0,0-2.09-4.35,11.88,11.88,0,0,0-2.06-2.56,3.67,3.67,0,0,0-1.71-1"/><path class="cls-8" d="M244.09,227.47l-4.72,1.45q1.83,4.58,4.45,12.11l1.55,4.77q2.52,8.7,3.24,10.6a67.56,67.56,0,0,0,2.46,6.31q3.92,7.83,8.56,10.66a10.28,10.28,0,0,0,4.89,1.85q3.93-.14,4.2-1.11a37.29,37.29,0,0,1-3.51-4.2,69,69,0,0,1-3.83-6.51q-2.53-4.89-6.13-12.29l-11.16-23.64"/><path class="cls-8" d="M170,236.8l2,4.58q2.55,6.6,3.61,9.16c1.12,2.68,1.84,4.37,2.16,5.05a74.07,74.07,0,0,0,5.7,11q4.94,7.19,12.31,8.78c.39,0,.54,0,.44-.16a33.19,33.19,0,0,1-3.27-4.27l-6.64-10.75q-4.41-7.94-12.55-23L170,236.8"/><path class="cls-8" d="M122.58,238.55l1.19,6.56a57.72,57.72,0,0,0-1.18-6.55m-11.16-20.4q-2-.07-4.42,2.36a17.55,17.55,0,0,0-3.93,5.95,26.65,26.65,0,0,0-1,3.18q-.51,2.55-2.12,8.62c-.26,1.12-.45,2.1-.58,2.94a38.23,38.23,0,0,0,0,9.19q2.85-18.89,10.34-22.62a6,6,0,0,1,7.35.85,19.14,19.14,0,0,1,5.49,9.9l-2.74-15.17q-4.5-5.27-8.38-5.2"/><path class="cls-8" d="M54.81,264q.33,19.2,2.35,26,2.52,10.43,8.26,15.4,7.44,6.82,24,9.29,9.3,1.22,20-3.22L106,305.22q-26.64,2.64-38.06-7.63Q57.53,287.78,54.81,264"/><path class="cls-8" d="M305.09,97.13q-5.7,15.33-10,25.06-9.09,20.91-17,36-10.41,18-18.41,29.79a161,161,0,0,1-13.45,16.76q-11.13,13-21.08,13.87a20.52,20.52,0,0,1-9.88-1.31q-6.37-2.36-13.57-8.69c-.46-.12-.44.37.08,1.46q6.81,15,24.19,19,12.18.45,24.57-13.19a108.46,108.46,0,0,0,8.24-10.26q8-11.75,15.73-23.77a230.36,230.36,0,0,0,15.29-27.58,240.79,240.79,0,0,0,11-29.3l4.34-27.82"/><path class="cls-8" d="M173.15,153.81q-.57,16.55,2.43,26A88.32,88.32,0,0,0,179,190q1.14,3,8,17.05,1.14,2.4,2.12,5a19.74,19.74,0,0,1,1.5,8.08q-.44,6.33-4.81,9a21.89,21.89,0,0,1-6,2.81q-1.62.51-4.77,1.26l-5.95,1.15q10.6,3.49,30.4,3.78a73,73,0,0,0,23.68-3.76c0-.57-.65-1.58-2-3L205,215.14l-4.72-5a82.32,82.32,0,0,1-8.45-11.21q-9-13.71-9.36-35.73l-9.27-9.34"/><path class="cls-9" d="M236.63,95.9l-13.14,5.55q9.6-1,12,1.4a5.46,5.46,0,0,1,1.8,4.13,7.65,7.65,0,0,1-2,5.09,19.85,19.85,0,0,1-5.23,3.83c-.88.47-1.76.91-2.65,1.29q-6.6,2.63-8.4,3.51a51.6,51.6,0,0,0-5.64,3.24,75.48,75.48,0,0,0-8,6.39q-2,1.8-5.58,5.26c-.28.23-.3.39-.07.46q3.34-.41,19.49-5.24A100,100,0,0,0,232.45,126q15.86-7.29,24.9-15.88,1.62-1.24.18-3.92a13.49,13.49,0,0,0-4.18-4.44,48.58,48.58,0,0,0-16.66-5.81"/><path class="cls-9" d="M260.32,74.3l-12.5.27a30.71,30.71,0,0,0-3.83-.1q-.7,0-5.68.3l9.5-.2a8.53,8.53,0,0,1,3,.83,11.16,11.16,0,0,1,2.83,2.11c.79.74,2.28,2.43,4.48,5a16.29,16.29,0,0,0,1.77,1.64,19.73,19.73,0,0,0,2.57,1.67l5,2.58a15.58,15.58,0,0,1,2.4,1.77,7.46,7.46,0,0,1,2.7,5.69q.24,2.48-2.72,7.78a11.47,11.47,0,0,0,5.33-1.36,9.29,9.29,0,0,0,3.14-2.94,12.57,12.57,0,0,0,2.24-10.64,7.89,7.89,0,0,0-3.2-4.23A18.36,18.36,0,0,0,274.74,83q-6.94-3.27-8.69-4.4a45.34,45.34,0,0,1-5.69-4.23"/><path class="cls-9" d="M202.93,65.58a11.63,11.63,0,0,1,3.73,3.28c.72.91,1.45,2,2.21,3.12l3.06,5.08a17.3,17.3,0,0,0,1.85,2.36,18.64,18.64,0,0,0,2.35,2.06c.42.33,2,1.37,4.6,3.1.5.35,1,.68,1.35,1a14.9,14.9,0,0,1,2.63,2.74,10.93,10.93,0,0,1,2,4.2,9.3,9.3,0,0,1-.34,4.69c0,.19.08.3.2.32,2.25-.2,3.72-.72,4.39-1.58a7.42,7.42,0,0,0,1.49-5.25q-.28-5-6.35-13.48A40.35,40.35,0,0,0,222.41,73L203,65.6"/><path class="cls-9" d="M154.63,120.36a15.2,15.2,0,0,1,2.8,8.44,11.69,11.69,0,0,1-2.68,7.77,12.45,12.45,0,0,1-5.34,3.28,20,20,0,0,1-3.07.88l-6.73,1.19c-.65.12-1.54.34-2.66.65a25.68,25.68,0,0,0-4,1.49c-.19.11-.09.25.31.42a13.63,13.63,0,0,0,3.3.76q16.16,1.38,16,1.53c1.54.23,2.68.42,3.41.58l4.74,1.13a9.22,9.22,0,0,0,1.41.17q2.69.14,6.05-3.4a36.17,36.17,0,0,0,7.25-15.8l-20.73-9.06"/><path class="cls-9" d="M173.46,66.48,153.28,68.7q10,.06,16.88,4.78a17.57,17.57,0,0,1,3.21,3.1c.38.37,1.91,2.47,4.59,6.32q.87,1.14,2.07,2.52a81.49,81.49,0,0,0,7.9,7.56,7.59,7.59,0,0,1,1.67,2.52q1.43,3.36-1.09,7.4a23.41,23.41,0,0,1-2.41,3.25q-6.6,6.87-7.79,8.49a30.19,30.19,0,0,0-3.51,5.42c0,.14.37,0,1-.38q7-4.29,8.59-5.11c1-.53,2.7-1.34,5.23-2.4a33.92,33.92,0,0,1,3.88-1.35q9.48-2.52,11.25-3.16a40.58,40.58,0,0,0,4.93-2c2.29-.78,3.4-2.47,3.31-5.08q-.83-8.13-9.18-16.07a27.54,27.54,0,0,0-4.08-2.93q.67.2-15.87-8.58-2-1.06-10.33-6.44"/><path class="cls-9" d="M95.46,95.57a18.2,18.2,0,0,0-1.93.33,20.72,20.72,0,0,0-2.09.56l4-.89"/><path class="cls-9" d="M103.92,88.92,93.64,94.39q7.62.84,10.45,4.3,3.78,4.5,1.44,8.76a15,15,0,0,1-2.94,4,68.75,68.75,0,0,1-6,5l-2.5,2.21A64.27,64.27,0,0,0,88.92,124q-7.82,9.24-8.75,13a3.82,3.82,0,0,0,1.16-.78q6.39-5.47,7.91-6.63c1.82-1.41,3.89-2.85,6.19-4.33a89.11,89.11,0,0,1,8.92-4.85q1.7-.92,10.94-4.44a43.37,43.37,0,0,0,4-1.84,10.11,10.11,0,0,0,4.19-4.18,7.11,7.11,0,0,0,.35-5.25,18.27,18.27,0,0,0-4.43-7.48q-4.69-5.12-15.44-8.31"/><path class="cls-10" d="M102.63,90.73q-8.47.6-13.37,2.88c-.71.19-4.4,2.32-11,6.41l-11.35,5.6a44.48,44.48,0,0,0-5.32,3.45,40.11,40.11,0,0,0-9.5,12q-4,8.25-3.09,13,.24.2.78-.57c1.93-3.1,3.88-5.95,5.82-8.55a50.92,50.92,0,0,1,4-4.58,33.19,33.19,0,0,1,9.16-6.73,46.59,46.59,0,0,1,4.89-2.08q2.25-.84,9.62-3a26,26,0,0,0,3.17-1.28,22.71,22.71,0,0,0,3-1.73q7.08-5.47,8.6-6.16a24.65,24.65,0,0,1,5.62-2.54,16.57,16.57,0,0,1,7.22-.55,47.78,47.78,0,0,1,9,2.66l-17.16-8.23"/><path class="cls-10" d="M168.75,64q-2.79.33-3.93.39c-5.49.17-8.34.31-8.57.4a38.65,38.65,0,0,0-4.91.81,43.21,43.21,0,0,0-11.74,5.16q-3.15,1.92-14,9.47a43.15,43.15,0,0,0-6.45,5.93q-4.57,5.25-.52,9a14.38,14.38,0,0,0,3.5,1.37,1.67,1.67,0,0,0,1.49-.15,8.26,8.26,0,0,0,1.58-1.55L131.74,87a51.6,51.6,0,0,1,5-4.71,53.14,53.14,0,0,1,7-5.06,24.18,24.18,0,0,1,5.18-2.11,20.42,20.42,0,0,1,2.49-.63q6.6-1.07,7-1.26c.49-.12,1.07-.29,1.73-.5l3.77-1.32c.44-.15,1-.3,1.68-.46a33.56,33.56,0,0,1,4.89-.7,25.66,25.66,0,0,1,7.63,1.07,44.93,44.93,0,0,1,7.14,2.74L168.75,64"/><path class="cls-10" d="M171.9,126.1l-18.84-6.66-9.62-3.08q-3.09-.9-4.94-1.27a37.29,37.29,0,0,0-8.22-.71,65.93,65.93,0,0,0-11,1.24,45.81,45.81,0,0,0-11.62,4.16A60.32,60.32,0,0,0,96.39,128,77,77,0,0,0,84.76,140a16.38,16.38,0,0,0-2.5,4.33c-.28.57.2.88,1.44.92q4.62.08,11.32-3.81a40.28,40.28,0,0,0,4.9-3.15q5-3.77,11.08-8.86,2.32-1.77,4-2.82a29.79,29.79,0,0,1,9.73-4.24,13.18,13.18,0,0,1,6.07-.23,19.7,19.7,0,0,1,2.39.52q6,1.85,7.83,2.21a31.93,31.93,0,0,0,4.59.72,26.27,26.27,0,0,0,4.2.06q0,.11,7.26-.89a33.5,33.5,0,0,1,4-.23,55,55,0,0,1,10.83,1.62"/><path class="cls-10" d="M230.74,81.53l4.13,4.06a29.5,29.5,0,0,0-4.1-4m-18.33-14a45.42,45.42,0,0,0-20.19-3.4,17.32,17.32,0,0,0-7.6,2.2c-1.86,1.2-2.79,2.49-2.81,3.86-.09,0,.11,0,.58,0,3.56-.51,5.64-.79,6.23-.82.77-.08,1.85-.12,3.23-.13a41.79,41.79,0,0,1,8.27,1.14c2.81.69,4.93,1.26,6.35,1.73q.92.21,8.56,3.07c1.87.61,4.13,1.29,6.8,2l1.65.55a24.26,24.26,0,0,1,7.22,3.81l-8.09-8q-7.48-5-10.18-6"/><path class="cls-10" d="M252.16,101.93l-.65-.15c-.58-.12-.38-.08.6.14m-.92-.21-12.08-2.63a19.86,19.86,0,0,0-6.24.12,33,33,0,0,0-5.74,1.41q-.21,0-8.61,3.4l-3.82,1.28c-1.22.34-2.66.69-4.33,1-5.17.86-8.29,1.45-9.35,1.79a34.51,34.51,0,0,0-6.28,2.07,36.17,36.17,0,0,0-6.57,3.64,20.38,20.38,0,0,0-5.41,4.92q-5.94,8.65-5.91,16.27,9.26-13.35,19-17.44a35.07,35.07,0,0,1,6.82-2.21c1.09-.21,2.37-.4,3.83-.57a71.58,71.58,0,0,0,7.39-.53,40.18,40.18,0,0,0,5.89-1.47A20.71,20.71,0,0,0,223.4,111l10.31-6.52a27.07,27.07,0,0,1,5.93-2.54,22.28,22.28,0,0,1,11.53-.25"/><path class="cls-10" d="M268.54,81.57,282,90.45a66.17,66.17,0,0,0-7.28-5.31,52.18,52.18,0,0,0-6.14-3.54m-12.1-8a48.29,48.29,0,0,0-10.89-.94,24.38,24.38,0,0,0-8,1.37c-1.66.79-2.6,1.68-2.82,2.66a8.35,8.35,0,0,0,.41,5c.1.09.4.08.91,0,4.56-1.23,8.21-2.08,10.92-2.55a47.45,47.45,0,0,1,7.3-.85,26.37,26.37,0,0,1,6.76.71,36.25,36.25,0,0,1,7.47,2.53l-12-7.91"/><path class="cls-11" d="M264.16,7.17l-5.33.27L242.55,20.19l-5.07,4.25q-14.32,12.31-18.87,18.08-7.76,9.48-9,15.74a4.72,4.72,0,0,0,.91,3.73c2.24,2.31,3.78,3.44,4.63,3.37q3.34-11.52,9.7-18.92,3.27-4,10.4-11.28l17.1-17q10.09-9.57,11.74-11"/><path class="cls-11" d="M348.37,23.71q-4.65,2.5-7.45,4.33L315.85,44.58a100.31,100.31,0,0,0-15.28,12.79q-6.66,6.93-8.06,12.16-1.77,7.17,1.59,9.85c.67.2,1,.16,1.15-.12Q297,71.91,299,69.07a38.64,38.64,0,0,1,5.57-7.2,56,56,0,0,1,7.87-6.63L333.69,40l19-14.15-4.33-2.16"/><path class="cls-11" d="M306.05,96l-3.38-2.71q-7.57,3.87-11.28,5.42-1.23.65-16.53,6.23-5.1,2-8.67,3.73-8.54,4-34.78,18c-2.77,1.4-4.82,2.4-6.15,3q-7.37,3.36-27.4,10.55a135.29,135.29,0,0,0-13.78,6.66q-6.15,3.73-7.71,6.46a.48.48,0,0,0,.08.49l2.31,2.36q1.81,1.6,2.1,1.08l11.84-5.5q8.87-5,30.59-15.72l14-6.37,18.23-8.89,21.88-10.1L306,96.06"/><path class="cls-11" d="M176.51,157.17l-28.88-7.75q-7.73-.73-19-2.1l-10.76-1.07q-1.11-.1-13.09-1.66l-3.93-.42q-5-.51-24.66-1.64-3.24-.24-7-.69-3.39-.36-9.23-1.38-1.32-.18-15.9-3.18-4-.78-6.38-1.13a128.6,128.6,0,0,0-16.8-1.45,75.64,75.64,0,0,0-10.58.61q-5.23.6-6.68,1.47a.7.7,0,0,0-.33.85,21.51,21.51,0,0,0,2,4,3.27,3.27,0,0,0,2.8,2l23.2,1.8q2.66.21,13.16.68,9.56.56,10.29.67c1.37.12,3,.28,4.8.49L89,150.66l8.58.84,28.08,2.37q14.59,1.5,14.79,1.46,1.36.15,22.53,1.44,6.28.3,13.51.4"/><path class="cls-12" d="M157.3,211.67l-7.45,9.68q-4.46,9.9-7.92,15.94a36.47,36.47,0,0,1-6,8.08,29.43,29.43,0,0,1-8.55,5.93,34.62,34.62,0,0,1-3.4,1.48l-9.27,3.32a32.25,32.25,0,0,0-3.81,1.82,13.08,13.08,0,0,0-5.34,5.39c0,.11,0,.13.07.07a9.85,9.85,0,0,1,1.61-.86,11.87,11.87,0,0,1,1.35-.44A82.45,82.45,0,0,0,125.93,258q8.65-3.87,12.86-8.16,2.27-1.32,10.51-17.77,6.63-13.78,8-20.39"/><path class="cls-13" d="M100.22,214.29q-16.5-.66-23.31,3.06-7.81,3.21-14.73,14.8a53.34,53.34,0,0,0-4.54,11.61,143.46,143.46,0,0,0-3,19.2A61.19,61.19,0,0,0,55,274.34l.67,3.89,2.61,12.41q-3.4-16.86-2.35-28.35.44-9.95,6.38-21.16A32.75,32.75,0,0,1,79,226.39a32.73,32.73,0,0,1,9.57-2.79,63.06,63.06,0,0,1,14,.32l4.54-8.79a32.08,32.08,0,0,0-6.86-.84"/><path class="cls-13" d="M6.08,138.9q.64,14.41,24.66,47.23A124.9,124.9,0,0,0,66.05,218a162.35,162.35,0,0,1-29.8-30.57Q26.08,173.64,22,165.13a139.92,139.92,0,0,1-8.78-24.93l-7.07-1.29"/><path class="cls-13" d="M198.51,274.22l2.75-4q-4.41-15.61-8.84-24-3.06-5.43-6.34-7.28a14.09,14.09,0,0,0-4.32-1.49c-2.13-.06-3.11.18-2.93.72a69.24,69.24,0,0,1,4.06,6.42L191,260.42q5.28,9.4,7.54,13.78"/><path class="cls-13" d="M271.86,271.19l2.41-1.87a17,17,0,0,0-.59-4.39,13.44,13.44,0,0,0-.71-1.82l-4.5-9.94-3.83-9.32q-1.23-2.82-2.17-4.62a29.38,29.38,0,0,0-6.78-9.19,20.31,20.31,0,0,0-4.74-2.95c-2.67-1-4-1.31-4.07-.85l10.31,17.63,2.72,4.76,5.48,10.13,3,5.37,3.42,7"/><path class="cls-14" d="M347,28ZM260.89,7.9A4.69,4.69,0,0,1,262,8a3,3,0,0,1,1.86,1.57,3.36,3.36,0,0,1,.31,2.54c-.33,1.15-1.49,2.73-3.5,4.74q-1.83,1.94-3.66,3.65s-.64.58-1.89,1.63l-1.68,1.41h0q-9.18,9.3-16.05,15.9-10.2,10.58-11.9,13.8A47.15,47.15,0,0,0,220,68h0c-.21-.13-.29-.19-.24-.19h0l-1.1-.82a33.68,33.68,0,0,0-4.56-4.25h0q2.16-9.88,5.71-14.23a121.27,121.27,0,0,1,9.16-10.25q8.72-8.35,20.41-20.4h0c.24-.31.45-.56.62-.76s.33-.37.43-.46l2.18-2.17,2.56-2.7.63-.61v0a11.89,11.89,0,0,1,1-1.12,6.72,6.72,0,0,1,2.71-1.84A3.89,3.89,0,0,1,260.89,7.9Zm88.87,19.3a4.72,4.72,0,0,1,.64.05,5.61,5.61,0,0,1,1.06.29,3,3,0,0,1,1.59,1.85,3.38,3.38,0,0,1-.08,2.55c-.51,1.08-1.9,2.46-4.19,4.14q-2.11,1.64-4.17,3s-.73.48-2.12,1.33l-1.87,1.13h0q-10.5,7.77-18.3,13.22-11.7,8.87-13.87,11.78a45.32,45.32,0,0,0-7.17,12.29h0l-.34-.1q-1.9-.58-6.37-1.44h0q4.15-12,9-16.34a119.73,119.73,0,0,1,10.62-8.7q9.88-6.9,23.3-17h0l.74-.65c.21-.18.38-.31.49-.39l2.49-1.81,2.94-2.26.71-.51v0a10.74,10.74,0,0,1,1.12-1,6.73,6.73,0,0,1,3-1.4A3.84,3.84,0,0,1,349.76,27.2ZM282.93,83.61l3.17.52h0l2.4.4,1.55.26,1.1.18h0l1.06.18c3.19.61,5.1,1,5.75,1.23l.59.16h0a22.85,22.85,0,0,1,2.67.9h0L297.79,89h0L289.32,93h0A30.21,30.21,0,0,0,283,83.63l0,0ZM193.68,65q5.49,0,14.09,3.35a10,10,0,0,1,2.23,1.5A33.29,33.29,0,0,0,214.35,74a26.61,26.61,0,0,0,2.37,1.52l1.07.54h0c4.16,2.1,6.38,3.31,6.66,3.65.69.49,1.31.94,1.88,1.37a16.57,16.57,0,0,1,3.49,3.24,34.31,34.31,0,0,1,3.86,8.43h0a22.68,22.68,0,0,0-2.31.52q-5,1.23-13.21,5.86h0a45.37,45.37,0,0,0-6.94-11.59A30.37,30.37,0,0,0,205,81.85q-.76-.7-11.15-6.54l-10.2-7.52.31-.13q5.56-2.43,8.24-2.56C192.67,65.06,193.17,65,193.68,65Zm53.65,9.75h.27a9.93,9.93,0,0,1,2.12.3h.05a20.54,20.54,0,0,1,4.38,2.09,62.76,62.76,0,0,0,7.24,4.35,104.81,104.81,0,0,0,10.33,3.94,10.69,10.69,0,0,1,2.21,1.2,23.23,23.23,0,0,1,5.38,5.16,26.53,26.53,0,0,1,1.89,3.12c.26.48.52,1,.77,1.49h0l-19.3,9h0q-9.28-9.59-17.13-11.8l-.06,0a29.36,29.36,0,0,0-3.3-.81h0a50.37,50.37,0,0,0-4.29-11.12,20.73,20.73,0,0,0-3.11-4.1h0a29.65,29.65,0,0,1,4.55-1.45,42.13,42.13,0,0,1,6.83-1.27A7.71,7.71,0,0,1,247.33,74.79Zm-85.44-6.34c1.2,0,2.38,0,3.54.14h0l.91.08a19.34,19.34,0,0,1,8.31,2.7l.68.49,13.11,9.62q.48.55,10.82,6.33a25.4,25.4,0,0,1,3.52,2.62,32.63,32.63,0,0,1,6.88,9.59c.23.45.45,1,.68,1.51h0q-6.78.45-10,.92a30.68,30.68,0,0,0-6.13,1.48q-8.38,3.43-12.19,6.72a17.12,17.12,0,0,0-4.28,5.92l-2.88,6.83h0a37,37,0,0,0-7.47-5.57h0a20.36,20.36,0,0,0-5.89-1.71q-1.37-.37-12.94-1a28.31,28.31,0,0,1-2.93-.42h-.06q-1.14,0-11.79-3.56a25.46,25.46,0,0,0-3.44-.66h0a61.4,61.4,0,0,0-2.92-6.66q-4-8.16-9.84-12.31h0A145.88,145.88,0,0,1,138.4,73.82Q151,68.45,161.89,68.45ZM42,125.19h0c-.21.44-.43.89-.64,1.35q-1.8,3.88-3.42,8.29h0L21,133.3h0l21-8.11Zm58.28-30.55a28.93,28.93,0,0,1,3.28.19h0a21.36,21.36,0,0,1,8.35,2.77,20.85,20.85,0,0,1,2.44,1.69q3.72,3,7.34,11.39h0a44.09,44.09,0,0,0-9.24,2.67,38.41,38.41,0,0,0-8.53,4.73q-1.2.68-9.33,7.73a112.49,112.49,0,0,0-9.31,6.33,41.42,41.42,0,0,0-4.64,4.23c-.65.66-1.29,1.37-1.93,2.12h0l-32.4-2.92h0q5.88-14.66,12.24-20a47.29,47.29,0,0,1,7.89-5.6c.94-.54,2.08-1.13,3.41-1.78q9.66-4.23,10.41-4.88a26.75,26.75,0,0,0,2.66-1.7l4.32-3.34,2.42-1.47a15.35,15.35,0,0,1,4.84-1.69A34.77,34.77,0,0,1,100.28,94.64Zm26.39,23.72a21.76,21.76,0,0,1,4.21.44l9.79,3.07a44.78,44.78,0,0,0,4.71,1c1,.16,2,.27,2.91.35q9.56.54,10.28.68a16.82,16.82,0,0,1,4.84,1q3.36,1.59,8,6.48h0q-4,8.69-6.88,14.82h0l-75.36-6.79h0c.82-.7,1.69-1.38,2.63-2q7.41-4.77,7.84-5.23,8.43-7.29,9.12-7.56,5.61-4.38,15.8-6.12h.06A16.45,16.45,0,0,1,126.67,118.36Zm39.1,28,1.52.13h-.12Zm2.95.26,1.37.12h0Zm69.09-46.09a14.28,14.28,0,0,1,2.19.17,20.05,20.05,0,0,1,3.65,1,33.34,33.34,0,0,1,11.18,7.46h0l-75.08,35.06h0l-3.65,1.7a9.6,9.6,0,0,0-1.27,1.3h0l-1.64-.15h0q2.58-5.55,6-12.88c.65-1.34,1.28-2.72,1.91-4.16h0q1.77-4.05,3.46-8.58a23,23,0,0,1,1.73-3.3q2.3-2.91,9.8-6.14a22.56,22.56,0,0,1,5.18-1.41q2.58-.44,11.69-1l.75-.05a21.67,21.67,0,0,0,3.05-.56,10,10,0,0,0,2.17-.75l1.76-1.05h0a63.38,63.38,0,0,1,10.83-5.37,21.68,21.68,0,0,1,3.94-1h0A16.3,16.3,0,0,1,237.81,100.52Zm66.94-5.76h0a206.38,206.38,0,0,1-9.47,32.43,406.49,406.49,0,0,1-24.17,53.26q-21.14,37.45-39,45.7a14.38,14.38,0,0,1-5.14,1.07,9.05,9.05,0,0,1-6.65-2.84q-8.24-6.06-20.19-22.26-10.49-16.45-13.25-26.44a174.66,174.66,0,0,1-5-20.36c-.19-.94-.38-1.91-.57-2.9h0l2.73-1.27h0l76.6-35.77,7.54-3.52h0l36.61-17.1Zm-302.33,45,6.27.57h0l26.81,2.41h0l7.9.71h0l29.75,2.68h0l9.23.83h0l78.47,7.07h0l12.69,1.14h0q2.12,11,3.45,15.68a102.18,102.18,0,0,0,9.25,23.88q6,12.27,18.45,26a86.4,86.4,0,0,0,10.71,10.08h0l-1.8.24q-1.72.23-7.14.52c-2.13.1-4,.15-5.47.15q-7.44,0-9.44-.13-5.24-.18-13.14-.66c-3.67-.23-7.28-.47-10.85-.73h0l-.14-.26h0q3-7.27,2.73-10.08a13.43,13.43,0,0,0-3.72-9.89,13.14,13.14,0,0,0-9.25-4.11h-.07q-5.85.13-8.9,4a27.54,27.54,0,0,0-2.2,4.57l-3.58,9.1-4.72,11a29.6,29.6,0,0,1-5.17,7.89h0A68.73,68.73,0,0,0,128,227.71q-4.28-9.14-10.13-11.76h0a30.83,30.83,0,0,0-5.37-2.34,46.64,46.64,0,0,0-8.25-2.22l-.42,0h0A75.47,75.47,0,0,0,91,209.73h-.56A38.86,38.86,0,0,0,68,216.51h0a133.44,133.44,0,0,1-16.62-10.43,88.52,88.52,0,0,1-11-10,125.73,125.73,0,0,1-13.55-17.42q-12.3-19.74-15.65-30.32a58.5,58.5,0,0,1-2.47-8h0Zm154.73,74.29a4.38,4.38,0,0,1,2.14.59,5.84,5.84,0,0,1,2.66,3.69,11.14,11.14,0,0,1-.89,5.46q-2.25,5.76-2.59,6.41l-4.06,8.36q-6.27,12.63-11.92,19.25a27.45,27.45,0,0,1-13.24,9.91,31.12,31.12,0,0,1-4.24,1.19h0l0,0c-1.56.36-2.48.55-2.78.58l-5.18.63-1.2.12c-.73.05-1.4.08-2,.08a11.83,11.83,0,0,1-2.93-.3c-2.68-.79-4-2.71-4.09-5.78h0a5.47,5.47,0,0,1,2.72-4.65,6.66,6.66,0,0,1,2.4-.93l.36,0h0c.61,0,1.16-.06,1.63-.06h0q11.76-1.61,19.58-6.58,5.61-3.31,9.79-10.64a63.85,63.85,0,0,0,3-6.17l8.47-20.52A4.8,4.8,0,0,1,157.15,214.07ZM248,225.27q15.24,27.38,19.83,35.13,1.65,3,2.81,5.42,1.44,3.29,1,4.34c.08.8-.89,1.64-2.9,2.54a8.51,8.51,0,0,1-2.59.53,1.74,1.74,0,0,1-1.1-.29q-.93-.39-3-3.7-1.38-2-15.38-27.62-3.13-6.28-5.57-11.1h0a52,52,0,0,0,6.92-5.25Zm-76.15,13.44c5.53.37,8.75.58,9.67.61l.91.06h0q9.42,16.81,12.86,22.63,1.65,3,2.8,5.42,1.44,3.29,1,4.34c.08.8-.89,1.64-2.9,2.53a8.58,8.58,0,0,1-2.58.54,1.84,1.84,0,0,1-1.11-.29c-.62-.26-1.63-1.5-3-3.7q-1.37-2-15.37-27.63l-2.26-4.51Zm-58.94-15.66q5.25.52,9.64,13a68,68,0,0,1,2.64,11.31h0l-.42.19a31.58,31.58,0,0,1-5.8,1.89h0a6.84,6.84,0,0,1-.72.25,15.38,15.38,0,0,1-1.53.43q-1.91.47-4.68,1-.53.12-1.47.39a15.44,15.44,0,0,0-3,1.21,10.38,10.38,0,0,0-2.74,1.75h0a14.63,14.63,0,0,0-3.33,6.78,13.73,13.73,0,0,0,1.39,10,15.39,15.39,0,0,0,2.69,3.76h0a1.39,1.39,0,0,0,.23.19,10,10,0,0,0,2.39,1.48,12.75,12.75,0,0,0,2.9.88c.67.13,1.23.22,1.69.28l.28,0h0c.79,0,1.57,0,2.34,0a60,60,0,0,0,9.82-.75h0a75.05,75.05,0,0,1-3.1,13.33q-4.44,12.33-9.83,13.35-5.24-.46-9.65-12.91-3.78-11.52-3.72-27t4-27.3q4.52-12.56,9.87-13.54Zm-22.36-5.19a53.67,53.67,0,0,1,12.58,1.73h0a33.09,33.09,0,0,0-6,9.54q-6.21,14.79-6.34,35.48.21,20.76,6.43,34.7,3.53,7.44,8.08,10.52h0a33.11,33.11,0,0,1-9.64,2c-1.72.15-3.39.22-5,.22a38.41,38.41,0,0,1-18-4Q56,298.55,55.37,267.72a88.74,88.74,0,0,1,3.88-27A31.16,31.16,0,0,1,69.6,225.51a30.21,30.21,0,0,1,16-7.25A28.52,28.52,0,0,1,90.52,217.86ZM260.36,0a11.7,11.7,0,0,0-8.26,3.42c-.22.22-.42.45-.62.67h0l-.23.19Q234.54,21.55,223.65,32q-10.2,10.56-11.9,13.79a45.88,45.88,0,0,0-5.24,13.46h0a43,43,0,0,0-13-2.38,20.13,20.13,0,0,0-6.53,1,68.61,68.61,0,0,0-11.5,4.8h0l-.51-.21-.05,0A35.58,35.58,0,0,0,162,60.29c-1.74,0-3.56.09-5.45.27q-13.93,1.92-22.6,6.43a157.81,157.81,0,0,0-24.12,20.9h0a34.35,34.35,0,0,0-9.54-1.32,42.7,42.7,0,0,0-10.45,1.37,27.79,27.79,0,0,0-5.74,2.73,50,50,0,0,0-5.93,4.39,18.29,18.29,0,0,1-1.83,1.18l-2,1.08q-8.36,3.63-10.82,5a59.1,59.1,0,0,0-7.57,4.9,36.92,36.92,0,0,0-6.43,6.13h0c-1.06.38-1.63.59-1.72.64h0s-1.47.64-4.28,1.92h0L6.79,130.09h0l-3.38,1.3h0a7.82,7.82,0,0,0-1,.83A8.75,8.75,0,0,0,.8,134.46a8.86,8.86,0,0,0-.8,4.11H0c.2.93.4,1.82.61,2.66q3,16.07,19.43,41.93a134.73,134.73,0,0,0,14.64,18.76,98,98,0,0,0,12.29,11,157.09,157.09,0,0,0,14.36,9.18h0a56.2,56.2,0,0,0-3.9,4.41q-9.75,13.14-10.2,41.28.63,26.13,11.6,39,9.72,12.84,31.33,13.39h.06q13.78,0,22.29-4.7a30.11,30.11,0,0,0,8.83-6.82,5.36,5.36,0,0,0,.67-1.33h0a33.29,33.29,0,0,0,6-9.47,81.6,81.6,0,0,0,5.7-23.07h0a28.83,28.83,0,0,0,4.12-2.07,31,31,0,0,0,7.93-6.31,79.11,79.11,0,0,0,9.64-12.71q3.69-6.09,7.65-14.18h0c1.49,3,2.72,5.35,3.69,7.19q14.36,26.37,16.16,29,4,7,10.38,7.28a15.89,15.89,0,0,0,11.43-4.79,11.24,11.24,0,0,0,2.09-10.54q-.58-2.62-3.93-8.7l-10.8-19.13h0c2.44.08,4.53.12,6.24.12l1.72,0h.25c3.73,0,7.66-.16,11.76-.48q2.9-.19,8.07-1a63.14,63.14,0,0,0,13.68-4h0q3.47,7,5.48,10.75,14.34,26.38,16.16,29,4,7,10.38,7.27a15.89,15.89,0,0,0,11.43-4.79A11.27,11.27,0,0,0,279.34,266q-.58-2.61-3.94-8.7l-21.43-38h0q10.36-11.25,21.7-30.52a398.93,398.93,0,0,0,30.12-66.88,192.1,192.1,0,0,0,7.83-30.23c.07-.4.11-.78.14-1.15a5.6,5.6,0,0,0-1-4.23h0a3.59,3.59,0,0,0-.21-.38v0a21.51,21.51,0,0,0-2.58-2.56c-.42-.35-.85-.69-1.3-1h0Q312.07,74,316,70.47a119.73,119.73,0,0,1,10.62-8.7q11.42-8,27.52-20.18h0l.27-.13h0l.95-.8h0l1.17-1,.51-.46.8-.8A16.18,16.18,0,0,0,359.73,36c.17-.27.32-.54.46-.82h0a13.74,13.74,0,0,0,.65-2.39,11.69,11.69,0,0,0-9.72-13.37h0a14,14,0,0,0-1.81-.13,11.73,11.73,0,0,0-6.87,2.23l-.71.57h0l-.25.15Q322.3,36.65,309.93,45.3q-11.71,8.87-13.88,11.78-5.61,6.53-9.56,18.88h0l-2.64-.44q-13.64-2.88-22.86-4.3l-1.28-.15h0l-1.18-.76q-2.67-1.49-4.24-2.21l-.09,0a17,17,0,0,0-7-1.39,24,24,0,0,0-4.79.5,64.1,64.1,0,0,0-15,4.52h0q2.21-11,6-15.72a122.8,122.8,0,0,1,9.15-10.24q10.07-9.64,24.11-24.21h0l.25-.17h0l1.83-2.09.42-.54.67-.91a16.81,16.81,0,0,0,1.54-2.73,9.25,9.25,0,0,0,.32-.88h0a13.14,13.14,0,0,0,.27-2.46A11.71,11.71,0,0,0,260.4,0Z"/></g></g></svg>